<svg width="438" height="446" fill="none" xmlns="http://www.w3.org/2000/svg"><path opacity=".1" d="M0 289.3l167.7-99 270 156.3-167.6 99L0 289.2z" fill="#1060E1"/><path d="M76.2 265.9l.3-95.9 82.1-47.6-.3 95.9-82 47.6zM280.4 383.8L76.2 266l82.1-47.6 204.3 117.9-82.2 47.6z" fill="#fff" stroke="#1060E1" stroke-width=".8" stroke-linejoin="round"/><path d="M362.9 231.8l-.3 104.4-204.3-118 .3-95.8 22.8 13.1-.3 69.8L340 297l.3-78.3 22.7 13.1z" fill="#fff" stroke="#1060E1" stroke-width=".8" stroke-linejoin="round"/><path d="M99.2 183.2l82.1-47.7-.2 69.8L99 252.9l.2-69.7z" fill="#fff" stroke="#1060E1" stroke-width=".8" stroke-linejoin="round"/><path d="M99 253l82.1-47.7L340 297l-82 47.6L99 252.9zM76.5 170l82.1-47.6 22.8 13.1-82.2 47.6-22.7-13z" fill="#fff" stroke="#1060E1" stroke-width=".8" stroke-linejoin="round"/><path opacity=".2" d="M127 247.4l65.7-38.2 113.5 65.5-65.7 38.2-113.6-65.5z" fill="#1060E1"/><path d="M126.9 237.3v-26l65.8-38.3-.1 26.1-65.7 38.2z" fill="#fff" stroke="#1060E1" stroke-width=".8" stroke-linejoin="round"/><path d="M192.6 199.1v-26l113.6 65.5v26l-113.6-65.5z" fill="#fff" stroke="#1060E1" stroke-width=".8" stroke-linejoin="round"/><path d="M240.4 302.9l-113.5-65.6 65.7-38.2L306 264.7l-65.7 38.2z" fill="#fff" stroke="#1060E1" stroke-width=".8" stroke-linejoin="round"/><path d="M127 211.2l65.7-38.2 113.5 65.6-65.7 38.2-113.6-65.6z" fill="#fff" stroke="#1060E1" stroke-width=".8" stroke-linejoin="round"/><path d="M240.5 276.8l65.7-38.2v26L240.3 303v-26.1z" fill="#fff" stroke="#1060E1" stroke-width=".8" stroke-linejoin="round"/><path d="M126.9 237.3v-26l113.6 65.5-.1 26-113.5-65.5zM364 246.6l-.2-.2c-.5-.4-.9-.2-1.6-.5l-2.3-.2-.8-3.6-3 .5-.2 3.3-.8 2.4v1l.6.7c.2.2.4.4.7.4l3.1-.6 4.7-1.4c.3 0 .3-.3.3-.6v-.2a1.2 1.2 0 0 0-.5-1z" fill="#fff" stroke="#1060E1" stroke-width=".8" stroke-linejoin="round"/><path d="M360.2 221.1a3 3 0 1 0-6 1l1.5 23.5a.7.7 0 0 0 .6.7l1.7.3c.4 0 .7 0 1-.5l.9-1v-.5l.3-23.5z" fill="#fff" stroke="#021766" stroke-width=".8" stroke-linejoin="round"/><path d="M257.8 344.6l.2-78.3 82.2-47.6-.3 78.3-82 47.6z" fill="#fff" stroke="#1060E1" stroke-width=".8" stroke-linejoin="round"/><path d="M258 266.3l82.2-47.6 22.7 13.1-82.2 47.6-22.7-13z" fill="#fff" stroke="#1060E1" stroke-width=".8" stroke-linejoin="round"/><path d="M280.7 279.4l82.2-47.6-.3 104.4-82.2 47.6.3-104.4zM374.7 251.1l-.2-.2c-.4-.4-.8-.1-1.6-.5l-2.3-.2-.8-3.6-3 .5-.2 3.4-.8 2.4v1l.6.6.7.5 3.1-.7 4.7-1.3c.3-.1.3-.4.3-.7v-.2a1.1 1.1 0 0 0-.5-1z" fill="#fff" stroke="#1060E1" stroke-width=".8" stroke-linejoin="round"/><path d="M359.8 220.3a3.7 3.7 0 0 1-2 5l-20 7.7a3.7 3.7 0 0 1-5-2 3.7 3.7 0 0 1 2-4.8l20.3-8a3.7 3.7 0 0 1 4.7 2z" fill="#fff" stroke="#021766" stroke-width=".8" stroke-linejoin="round"/><path d="M369.4 223.5c0-.5-.3-1-.6-1.3a3.7 3.7 0 0 0-4.5-1.5l-12.8 5-.1-1.2c-1.2 1.4-4.2 4-9.5 3-6.5-1.3-8.6-3-9.2-4.7l-.8 5.1c-.7 8 8.6 9.2 12.4 9.2 6.5 0 19.7-8.3 19.7-8.3l2.4 21a1.5 1.5 0 0 0 1.3 1.2l1.1.2a1.6 1.6 0 0 0 1.6-.8l.2-.4c.2-.3.4-.7.4-1.2l-1.6-25.3z" fill="#fff" stroke="#021766" stroke-width=".8" stroke-linejoin="round"/><path d="M357.7 211.7l15.3 7.9a.4.4 0 0 0 .6-.4l2.2-12.4a.9.9 0 0 0-.5-1l-15-7.6a.7.7 0 0 0-1 .6l-2.2 12a1 1 0 0 0 .6 1z" fill="#fff" stroke="#1060E1" stroke-width=".8" stroke-miterlimit="10"/><path d="M373.1 220l-6.9 4.5a1 1 0 0 1-1 0l-15.1-7.6a.6.6 0 0 1-.1-1l6.6-4.4a.8.8 0 0 1 .7 0l15.8 8a.3.3 0 0 1 0 .4z" fill="#fff" stroke="#1060E1" stroke-width=".8" stroke-miterlimit="10"/><path d="M350.3 213l1.4.4s.7.8 1 .8a2 2 0 0 0 1.5-.5c.8-1 2.3.6 2.5-.7 0-.7-1.3-1.6-2-1.8-1-.1-1.9 0-2.8.1l-1.6-.2v2z" fill="#fff" stroke="#2B1507" stroke-width=".8" stroke-miterlimit="10"/><path d="M331.6 208.7l3.4-15a2.3 2.3 0 0 1 2.7-1.7 2.3 2.3 0 0 1 1.7 2.7l-2.6 11.4 13 4a1 1 0 0 1 .9.6l-.1-.9c.6 1.2-.2 3.6-1.6 3.5l-16.1-3a1.4 1.4 0 0 1-1.3-1.6z" fill="#fff" stroke="#945CA2" stroke-width=".8" stroke-linejoin="round"/><path d="M351.8 179l-3.5-2.8a3.7 3.7 0 0 0-4.2-.3l-1.4.8a4.2 4.2 0 0 0-1.9 4.7l1.9 6.5-.5 6.8 4.1.3s0-4.4.4-5.4 3 .1 3.8-.2c1-.6 1.7-1.6 2-2.8.3-1.6.4-3.1.5-4.7-.2-1-.6-2-1.2-3z" fill="#fff" stroke="#2B1507" stroke-width=".8" stroke-miterlimit="10"/><path d="M339.3 181.2c0-1.1.4-2.2 1-3v-.7a4 4 0 0 1 3.8-4.1h.5a2.7 2.7 0 0 1 3.1-.4 4.4 4.4 0 0 1 5.6 4c0 1.7-2.1 2.5-2.3 3-.1.5 0 1.4-.4 2-.6.5-.5 2.8-.9 2.6-.4-.2-.5-1.2-.9-1.8-.3-.6-1.6-.5-1.6 1.5 0 1.2-.3 2.5-.8 3.6-.4 1.1-2.8 1.4-3.8-.3l-.4-1a2.7 2.7 0 0 1-2-3c-.6-.7-.9-1.5-.9-2.4z" fill="#fff" stroke="#EE7B06" stroke-width=".8" stroke-linejoin="round"/><path d="M340.8 232.1c-12.5-3.5-8-7.3-8.5-9.7l1.8-14.7.9-13.8c1.2-5 5.1-4.5 7.1-3.5l6.5 3.3.2.2c1.2.7 2.2 1.7 2.9 3 2.6 4 .2 10.6-.2 15.2v3l.2 9.6-.7 4.8c-.7 1-4 4.3-10.2 2.6z" fill="#fff" stroke="#945CA2" stroke-width=".8" stroke-linejoin="round"/><path d="M360.7 220.3l1.6.3 1.4.8c.3.1 1.5.3 1.7 0l1.2-1c.3-.3 1.4 1.4 1.7.3 0-.4-1.6-2.3-2.5-2.6-1-.1-2.2 0-3.2.1l-1.8-.2v2.3z" fill="#fff" stroke="#2B1507" stroke-width=".8" stroke-miterlimit="10"/><path d="M347.4 218.8l.3-17.3c.2-4.3.2-7.3 1.7-7.2 4.2.2 4 8.5 4 9.7l-.5 11.8s8.5 1.4 10.1 2.2a1.8 1.8 0 0 1-.9 3l-13-1c-.9 0-1.7-.4-1.7-1.2z" fill="#fff" stroke="#945CA2" stroke-width=".8" stroke-linejoin="round"/><path d="M206.6 297.3c1 1.8 2.3 3.4 3.8 4.7 1 .7 2.5 0 2.5-.6 0-.1-2.9-3.7-3.3-4.4-.5-.1-1-.4-1.5-.8-.5-.5-.8-1.9-1.3-1.8-.9.2-1 1.6-.2 3z" fill="#fff" stroke="#1060E1" stroke-width=".8" stroke-linejoin="bevel"/><path d="M207.8 296.6c1.3 2.3 3.3 4.4 4 4.7.8.4 2 0 2-.5v-.8c-.8-1.1-4.8-6.2-5.9-6-.8 0-.9 1.2 0 2.6z" fill="#fff" stroke="#1060E1" stroke-width=".8" stroke-linejoin="bevel"/><path d="M232.5 300.6c-2.8-.9-16.4-1.4-19.3-2 0 0-2.4-1-2.6-.7-.4.7 2.4 3.2 3 3.2 5.2.6 13 4 15.9 3l13 17.8 7.8-6.2s-15.6-14.4-17.8-15.1z" fill="#fff" stroke="#BF6A2B" stroke-width=".8" stroke-miterlimit="10"/><path d="M202.3 301.5c1.5 2.3 3.5 4.2 5.9 5.5a1 1 0 0 0 1.2-.9c0-1-3.3-4.7-3.8-4.7a4 4 0 0 1-1.6-1.1c-.5-.5-.8-2.1-1.3-2-1 .1-1.2 1.6-.4 3.2z" fill="#fff" stroke="#1060E1" stroke-width=".8" stroke-linejoin="bevel"/><path d="M203.5 300.7c1.3 2.6 5.5 5.9 6.4 5.4.6-.3.6-.9.4-1.5-.8-1.3-5.8-6.7-6.5-6.9-1-.2-1.2 1.4-.3 3z" fill="#fff" stroke="#1060E1" stroke-width=".8" stroke-linejoin="bevel"/><path d="M231 303.5c-2.4-.8-16.6 0-20.4-.4 0 0-3.3-.9-3.5-.4-.4.7 2.6 2.4 3.3 2.4 6.5.4 15.2 3.8 17.4 3.2l12 20.4 5.3-8.5s-11.7-15.9-14.1-16.7z" fill="#fff" stroke="#BF6A2B" stroke-width=".8" stroke-miterlimit="10"/><path d="M225.7 310.8a.3.3 0 0 0 0 .6l10.4 6a1.2 1.2 0 0 0 1 0l17.5-10c.3-.2.3-.5 0-.7l-10.4-6a1.2 1.2 0 0 0-1 0l-17.5 10.1z" fill="#fff" stroke="#1060E1" stroke-width=".8" stroke-linejoin="bevel"/><path d="M223.8 298.7a1.2 1.2 0 0 0-.5 1l1.9 11c0 .3.2.4.5.2l17.5-10a1.2 1.2 0 0 0 .5-1l-1.9-11c0-.3-.2-.4-.5-.2l-17.5 10z" fill="#fff" stroke="#1060E1" stroke-width=".8" stroke-linejoin="bevel"/><path d="M241 308c-.6-.8 1.2-1.6 2.1-1.3l2.3.4c.5 0 .9.4 1.2.8.2.4.6.4 1 .6l-.8 1.6c-.7-.2-1 0-1.8.2h-1.7c-1-.6-1.8-1.3-2.3-2.2z" fill="#fff" stroke="#BF6A2B" stroke-width=".8" stroke-miterlimit="10"/><path d="M259.7 330c-1.8-5.3-8.2-6-12.6-8.2l4.7-1.8c-1.6-3.5-1.6-3-4.3-6.3-1.5-.8-4.5 3.7-3.8 5.6l.2.3c-2.8-.2-5.1 5.7-4.3 8.8 1.4 3 4.7 7.3 10.3 6.6 3.5-.5 10.6-2.6 9.8-5z" fill="#fff" stroke="#00BC70" stroke-width=".8" stroke-linejoin="round"/><path d="M255.8 308c1.2.3 2.3.5 3.5.5 0 0 1.2-1.7.3-5-.6-2.5-.7-2-.7-2.9-.1-1.9-1.3-4.3.9-4.8 2.2-.6 3.7 1.6 4.2 3.8 1 3.6 1.7 14 0 14.5-1.4.4-6.3-1.7-8.1-3.3V308z" fill="#fff" stroke="#2B1507" stroke-width=".8" stroke-miterlimit="10"/><path d="M262 296.3c-1-1-2.6-.7-4.2 0l-1.5-3-2.5.4c0-.6 0-1.2-.2-1.8-.3-1.7 5.5-1 5.7-3.4a6.3 6.3 0 0 0-6.6-7c-3.8.4-5.7 2-6.4 6.2 0 .8.2 1.5.3 2.3 0 1.7.3 3.4.8 5 .8 2 1.4 3.5 3.6 2l1.3 2.1c-1.8.7-5.7 2.6-6.5 7.1-.3 1.1-.7 2.1-1.3 3-1.3 2.8 4 6.7 4 11 0 4-2.2 7.7-1.3 8.8 4.2 5.2 14.1 2 15.3-4.8 0 .1 3-24.8-.4-28z" fill="#fff" stroke="#BF6A2B" stroke-width=".8" stroke-miterlimit="10"/><path d="M246.6 329.4c3.4 5.8 14.8 1.7 15.9-5 .7-5.6 1-11.1 1.2-16.7-.3.8-1.3-2.5-1.6-3.5-.5-1.7-2-7-2.1-8.6-.5 0-.9.1-1.3.3.8 1.5 1 6.3-1.8 7.9-3.7 2-5.6-3.1-6.2-3.3l-1 .6c1.5 1.9 5.5 10.5 0 13.4-1.5.8-3-7-4.5-7.9-.3 1-.7 2-1.3 3-1.3 2.7 4.1 6.6 4.1 11 0 4-2.2 7.4-1.4 8.8z" fill="#fff" stroke="#945CA2" stroke-width=".8" stroke-linejoin="round"/><path d="M234.5 310.5c.1-.2 1-.6 1.4-.4.3 0 2.4 1.5 2.4 1.4l-.5-1c0-.4.6-.1 1 .1.4.4.8 1 1 1.6a8 8 0 0 0 1 1.8c.9 1.2 5.5 5.3 5.5 5.3.3-2.5.3-5 .2-7.5-.2-2.5-1.3-4.6-1.2-5.5.2-2 .2-3.8 2.6-3.3 2.2.4 3 2.4 3.2 4.6.2 3.8.6 18.2-3.3 17.8-2.4-.3-8.8-9.9-8.8-9.9a.6.6 0 0 0-.4-.3c-.6 0-1.2-.2-1.6-.6-.5-.4-1-1.1-1.8-2-.8-.7-1.1-1.6-.7-2.1z" fill="#fff" stroke="#BF6A2B" stroke-width=".8" stroke-miterlimit="10"/><path d="M248 287.6c0 1.5 1.8 2.1 2.5 2.7 1.2 1 4.5 3.8 3.7 6.2-.3.9-1.8 2-3.4 3-1.3.7-6.8 2.5-6.4 5.9 0 .5.3-.2.8-1 .7-1.2 3.5.1 7.1-.2 4-.3 6.7-5.7 5.8-6.9-2.3-2.8.8-5.7 1.4-8.3a8 8 0 0 0-1.5-6c-1.3-1.2-3-2-4.8-2-1.4-.1-5.8.7-6.8 4.8-.1.6 1.5.8 1.5 1.8z" fill="#fff" stroke="#6E4E47" stroke-width=".8" stroke-miterlimit="10"/><path d="M253.3 293.6l.2 3.5 2.3-1.9 3 .7-.3-3.3-3 1.6-2.2-.6z" fill="#fff" stroke="#00BC70" stroke-width=".8" stroke-linejoin="round"/><path d="M280.7 279.4l-.3 104.4L76.2 266l.3-95.9 22.7 13.1L99 253l158.8 91.7.2-78.3 22.7 13.1z" fill="#fff" stroke="#1060E1" stroke-width=".8" stroke-linejoin="round"/><path d="M332.3 223.5c4 3.2 12.7 7.4 19.4 2.4z" fill="#fff"/><path d="M332.3 223.5c4 3.2 12.7 7.4 19.4 2.4" stroke="#945CA2" stroke-width=".8" stroke-linejoin="round"/><path opacity=".2" d="M136.6 205.6l56-32.6L298 232.2l-61.2 35.3-100.1-61.9z" fill="#1060E1"/><path d="M129.3 179.2l4.7-22.8 65.8-38.2L195 141l-65.7 38.2zM195 141l4.8-22.8 111 91L306 232l-111-91z" fill="#fff" stroke="#1060E1" stroke-width=".8" stroke-linejoin="round"/><path d="M240.3 270.2l-111-91L195 141l111 91-65.7 38.2z" fill="#fff" stroke="#1060E1" stroke-width=".8" stroke-linejoin="round"/><path d="M245 247.4l65.8-38.2L306 232l-65.7 38.2 4.8-22.8z" fill="#fff" stroke="#1060E1" stroke-width=".8" stroke-linejoin="round"/><path d="M134 156.4l65.8-38.2 111 91-65.7 38.2-111-91z" fill="#fff" stroke="#1060E1" stroke-width=".8" stroke-linejoin="round"/><path d="M129.3 179.2l4.7-22.8 111 91-4.7 22.8-111-91z" fill="#fff" stroke="#1060E1" stroke-width=".8" stroke-linejoin="round"/><path opacity=".1" d="M146.1 149.4l53.7-31.2L306 195.5l-68 35.7-92-81.8z" fill="#1060E1"/><path d="M209.9 88.4l9.6-18.1 102.8 114.5-9.6 18.1L209.9 88.4zM144.2 126.6l9.6-18.1 65.7-38.2-9.6 18.1-65.7 38.2z" fill="#fff" stroke="#1060E1" stroke-width=".8" stroke-linejoin="round"/><path d="M247 241.1L144.1 126.6l65.7-38.2 102.8 114.5-65.8 38.2z" fill="#fff" stroke="#1060E1" stroke-width=".8" stroke-linejoin="round"/><path d="M256.6 223l65.7-38.2-9.7 18.1-65.7 38.2 9.7-18.1zM144.2 126.6l9.6-18.1L256.6 223l-9.7 18.1-102.7-114.5z" fill="#fff" stroke="#1060E1" stroke-width=".8" stroke-linejoin="round"/><path d="M153.8 108.5l65.7-38.2 102.8 114.5-65.7 38.2-102.8-114.5z" fill="#fff" stroke="#1060E1" stroke-width=".8" stroke-linejoin="round"/><path opacity=".1" d="M173.1 97L221.6 69l97.3 108.4-62.6 30L173 97z" fill="#1060E1"/><path d="M239.5 42.2l14.6-11.7 87 134-14.6 11.6-87-133.9zM260.8 214.3l-87-133.9 65.7-38.2 87 133.9-65.7 38.2zM173.8 80.4l14.6-11.7L254 30.5l-14.6 11.7-65.7 38.2z" fill="#fff" stroke="#1060E1" stroke-width=".8" stroke-linejoin="round"/><path d="M277.6 204.2l64.9-37.7-16 9.6-65.7 38.2 16.8-10z" fill="#fff" stroke="#1060E1" stroke-width=".8" stroke-linejoin="round"/><path d="M188.4 68.8L254 30.5l88.4 136-65.6 38.4-88.5-136.2z" fill="#fff" stroke="#1060E1" stroke-width=".8" stroke-linejoin="round"/><path d="M173.8 80.4l14.6-11.7L276.9 205l-16.1 9.4-87-133.9z" fill="#fff" stroke="#1060E1" stroke-width=".8" stroke-linejoin="round"/><path opacity=".1" d="M205.6 58.8L265 30.3 340.3 150l-63.4 36.5-71.3-127.7z" fill="#1060E1"/><path d="M224 32.5l75 161-18.5 5L208 44l16-11.5z" fill="#fff" stroke="#1060E1" stroke-width=".8" stroke-linejoin="round"/><path d="M224 32.5l68.5-32 72 154.5-65.5 38.5-75-161z" fill="#fff" stroke="#1060E1" stroke-width=".8" stroke-linejoin="round"/><path d="M295 325a.2.2 0 0 1 .2.1v3.3l-.1.3-.2.2-2.9 1.6h-.2a.2.2 0 0 1 0-.1V327v-.3l.2-.2 2.9-1.6a.2.2 0 0 1 .2 0zm-.4 3.4v-2.7l-2.3 1.4v2.7l2.3-1.4z" fill="#BBC0C4"/><path d="M309 332.6l.2.1a.6.6 0 0 1-.2.5l-2.7 1.5-.3-.1a.6.6 0 0 1 .3-.5l2.7-1.5z" fill="#F48024"/><path d="M295.1 338a.2.2 0 0 1 0 .2v3.5s0 .2-.2.2l-2.8 1.7a.2.2 0 0 1-.2 0 .2.2 0 0 1-.1-.2v-3.3-.2l.3-.2 2.8-1.7a.2.2 0 0 1 .2 0zm-.4 3.5v-2.7l-2.4 1.3v2.7l2.3-1.3" fill="#BBC0C4"/><path d="M300 335.1a.2.2 0 0 1 .1.2v3.5l-.2.2-2.9 1.7a.2.2 0 0 1-.2 0 .2.2 0 0 1 0-.2v-3.3-.2l.2-.2 2.9-1.7a.2.2 0 0 1 .2 0zm-.4 3.5v-2.7l-2.3 1.3v2.7l2.3-1.3" fill="#F48024"/><path d="M305 332.3a.2.2 0 0 1 0 .1V336l-.2.2-2.9 1.6a.2.2 0 0 1-.1 0 .2.2 0 0 1-.1-.1v-3.3a.6.6 0 0 1 .2-.5l3-1.6a.2.2 0 0 1 .1 0zm-.4 3.4V333l-2.4 1.4v2.7l2.4-1.4z" fill="#BBC0C4"/><path d="M316.7 328.1c.1 0 .2 0 .2.2a.5.5 0 0 1-.2.4l-2.7 1.6c-.1 0-.3 0-.3-.2a.6.6 0 0 1 .3-.4l2.7-1.6zM312.8 330.3c.2 0 .3 0 .3.2a.6.6 0 0 1-.3.4l-2.6 1.6c-.2 0-.3 0-.3-.2a.6.6 0 0 1 .3-.4l2.6-1.6zM316.6 321.3c.2-.1.3 0 .3.1a.5.5 0 0 1-.3.5l-2.6 1.5c-.2.1-.3 0-.3-.1a.6.6 0 0 1 .3-.5l2.6-1.5zM319.4 324.5c.1 0 .2 0 .2.2a.6.6 0 0 1-.2.4l-13.1 7.6c-.2 0-.3 0-.3-.2a.6.6 0 0 1 .3-.4l13-7.6zM312.8 323.5c.2-.1.3 0 .3.1a.6.6 0 0 1-.3.5l-2.6 1.5c-.2 0-.3 0-.3-.2a.6.6 0 0 1 .3-.4l2.6-1.5zM316.6 315c.2 0 .3 0 .3.3a.5.5 0 0 1-.3.4l-2.6 1.6c-.2 0-.3 0-.3-.2a.6.6 0 0 1 .3-.5l2.6-1.5zM309 325.7c.1 0 .2 0 .2.2a.6.6 0 0 1-.3.4l-2.6 1.6c-.2 0-.3 0-.3-.2a.6.6 0 0 1 .3-.5l2.6-1.5zM312.8 317.3l.3.1a.6.6 0 0 1-.3.5l-2.7 1.5c-.1.1-.2 0-.2-.1a.6.6 0 0 1 .2-.5l2.7-1.5zM316.6 308.9c.1-.1.3 0 .3.1a.6.6 0 0 1-.3.5L314 311c-.1.1-.2 0-.2-.1a.6.6 0 0 1 .2-.5l2.7-1.5zM309 319.5s.2 0 .2.2a.6.6 0 0 1-.3.5l-2.6 1.5c-.1 0-.3 0-.3-.2a.6.6 0 0 1 .3-.4l2.6-1.6z" fill="#F48024"/><path d="M305 325.4a.2.2 0 0 1 0 .2v3.5l-.2.2-2.9 1.7a.2.2 0 0 1-.2 0 .2.2 0 0 1 0-.2v-3.3a.6.6 0 0 1 .2-.4l2.9-1.7a.2.2 0 0 1 .2 0zm-.5 3.5v-2.7l-2.3 1.3v2.7l2.3-1.3z" fill="#BBC0C4"/><path d="M312.8 311a.2.2 0 0 1 .3.2.6.6 0 0 1-.3.5l-2.7 1.5c-.1.1-.2 0-.2-.1a.6.6 0 0 1 .2-.5l2.7-1.5zM319.3 311.5c.1 0 .3 0 .3.2a.6.6 0 0 1-.3.4l-13 7.6c-.2 0-.3 0-.3-.2a.6.6 0 0 1 .3-.4l13-7.6zM309 313.3a.2.2 0 0 1 .2.2.6.6 0 0 1-.3.4l-2.6 1.6c-.2 0-.3 0-.3-.2a.6.6 0 0 1 .3-.4l2.6-1.6z" fill="#F48024"/><path d="M305 319.2v3.8l-.2.2-2.9 1.6a.2.2 0 0 1-.2 0v-3.4-.3l.2-.2 2.9-1.7a.2.2 0 0 1 .2 0zm-.5 3.5V320l-2.3 1.4v2.7l2.3-1.4" fill="#BBC0C4"/><path d="M319.3 305.3c.1 0 .3 0 .3.2a.6.6 0 0 1-.3.4l-13 7.6c-.2 0-.3 0-.3-.2a.6.6 0 0 1 .3-.5l13-7.5z" fill="#F48024"/><path d="M295.1 331.1a.2.2 0 0 1 0 .2V334.9l-.2.2-2.9 1.6a.2.2 0 0 1-.1 0 .2.2 0 0 1-.1-.1v-3.3-.3l.2-.2 2.9-1.6a.3.3 0 0 1 .2 0zm-.4 3.5v-2.7l-2.4 1.4v2.6l2.3-1.3" fill="#BBC0C4"/><path d="M322.2 293.4a.2.2 0 0 1 0 .2l.2 37.8v.3l-.3.2-33 19s-.1.1-.2 0a.2.2 0 0 1 0-.1l-.1-33.4V313a.6.6 0 0 1 .2-.4l33-19a.2.2 0 0 1 .2 0zm-.4 38v-32.7l-32.5 18.7v32.8l32.6-18.8zm0-33.3v-3.9l-32.5 18.7v4l32.5-18.8z" fill="#F48024"/><path d="M319.4 317.7l-13.1 7.5a.6.6 0 0 0-.3.5c0 .1.2.2.3.1l13-7.5a.6.6 0 0 0 .3-.5c0-.2-.1-.2-.2-.1z" fill="#F48024"/><path d="M295 318.7a.2.2 0 0 1 .1.2v3.3a.6.6 0 0 1-.2.5l-2.9 1.6a.2.2 0 0 1-.2 0 .2.2 0 0 1 0-.1v-3.3-.3l.2-.2 2.9-1.7a.2.2 0 0 1 .2 0zm-.4 3.5v-2.7l-2.3 1.4v2.7l2.3-1.3" fill="#BBC0C4"/><path d="M300 315.9a.2.2 0 0 1 0 .2v3.5l-.2.2-2.8 1.7a.2.2 0 0 1-.2 0 .2.2 0 0 1-.1-.2V318v-.3l.3-.2 2.8-1.6a.2.2 0 0 1 .2 0zm-.4 3.5v-2.7l-2.4 1.3v2.7l2.4-1.3z" fill="#F48024"/><path d="M305 313a.2.2 0 0 1 0 .2v3.5l-.2.2-2.9 1.7a.2.2 0 0 1-.2 0 .2.2 0 0 1 0-.2v-3.3-.2l.2-.2 2.9-1.7a.2.2 0 0 1 .2 0zm-.5 3.5v-2.7l-2.3 1.4v2.6l2.3-1.3" fill="#BBC0C4"/><path d="M300 322.1l.1.2V325.9l-.3.2-2.8 1.6a.2.2 0 0 1-.2 0 .2.2 0 0 1-.1-.1v-3.3a.6.6 0 0 1 .3-.5l2.8-1.7a.2.2 0 0 1 .2 0zm-.4 3.5v-2.7l-2.4 1.3v2.7l2.4-1.3M300 328.3a.2.2 0 0 1 .1.1V332l-.3.2-2.8 1.6a.2.2 0 0 1-.2 0 .2.2 0 0 1 0-.1v-3.3-.3l.2-.2 2.8-1.6a.2.2 0 0 1 .2 0zm-.4 3.4V329l-2.3 1.4v2.7l2.3-1.4" fill="#F48024"/><path d="M94.8 139.9c-1.7 1.4-1.7 16.8-2.2 20.5a9.6 9.6 0 0 1-4.7 6.3c-2.6 1.6-1.7 4.1.7 3.2 6.4-2.6 7.5-12 7.7-14.2.4-4.6.6-12.8-.3-14.2-.8-1.5-.1-2.5-1.2-1.6z" fill="#fff" stroke="#EE7B06" stroke-width=".8" stroke-linejoin="round"/><path d="M80.8 195.5l-3.2 1.9c-1.3.9-3 2.7-2 3.9.8.7 4.4.5 5.3 0a120 120 0 0 1 5.2-3.1 1.8 1.8 0 0 0-.8-2.7h-.2a4.2 4.2 0 0 0-4.3 0z" fill="#fff" stroke="#1060E1" stroke-width=".8" stroke-linejoin="bevel"/><path d="M80.7 198.3l-2.5 1.3" stroke="#1060E1" stroke-width=".8" stroke-linecap="round" stroke-linejoin="bevel"/><path d="M85 196.2V177a2.1 2.1 0 1 0-4.2 0V196" fill="#fff"/><path d="M85 196.2V177a2.1 2.1 0 1 0-4.2 0V196" stroke="#EE7B06" stroke-width=".8" stroke-linejoin="round"/><path d="M89.5 200.1l-3.2 1.9c-1.3.9-3 2.7-2 3.9.8.7 4.4.5 5.3 0 .8-.6 4.4-2.5 4.4-2.5a1.8 1.8 0 0 0 0-3.3h-.2a4.2 4.2 0 0 0-4.3 0z" fill="#fff" stroke="#1060E1" stroke-width=".8" stroke-linejoin="bevel"/><path d="M89.3 203l-2.4 1.2" stroke="#1060E1" stroke-width=".8" stroke-linecap="round" stroke-linejoin="bevel"/><path d="M93.7 200.9v-19.3a2.1 2.1 0 0 0-4.2 0v18.9" fill="#fff"/><path d="M93.7 200.9v-19.3a2.1 2.1 0 0 0-4.2 0v18.9" stroke="#EE7B06" stroke-width=".8" stroke-linejoin="round"/><path d="M96.8 154.6l-3 10.2-8.2 5a15 15 0 0 0-3.6 2.7 9.5 9.5 0 0 0-2.2 4.5l-.3 2.8-.1 1.6c-.1 3.8 12.1 7.2 14.8 8.3 1.4.6 1.8-6.4 1.8-6.4s0-1.8 2.6-3.3l8.4-4.8a7.9 7.9 0 0 0 0-13.7l-10.2-6.9z" fill="#fff" stroke="#00BC70" stroke-width=".8" stroke-linejoin="round"/><path d="M88.5 179.8l12-8.8-9.1-5.3-12.2 8.7 9.3 5.4z" fill="#fff" stroke="#1060E1" stroke-width=".8" stroke-miterlimit="10"/><path d="M83.8 174.4l1.8 1" stroke="#1060E1" stroke-width=".8" stroke-miterlimit="10" stroke-linecap="round"/><path d="M89.6 127.7l.2-.8a1.7 1.7 0 0 1 1.2-1.4 5 5 0 0 1 2-.2l3.6.2c2.4.1 5.1.5 6.4 2.5.9 1.4.8 3.2 1.8 4.5.3.5.8.8 1.1 1.2.9 1.2.7 2.8.3 4.2 0 .5-.3.9-.6 1.2a2 2 0 0 1-2.3 0c-.6-.6-1.3-1-2-1.4-1.1-.4-2.5-.1-3.6-.5-2.4-.8-3.1-4-5.4-4.9a8 8 0 0 1-2.2-.8c-1-.8-.8-2.4-.5-3.8z" fill="#fff" stroke="#021766" stroke-width=".8" stroke-miterlimit="10"/><path d="M110.2 145a12 12 0 0 0-4.4-5.2l-6-3.5-4.3-.3c-.9 0-2.7 3.5-2.7 8.6 0 3.4 1.7 10.2 1.5 12.6l-.5 7.6c4.4 4.9 17.5.8 17.5.8-1.4-10.5 2-12.8-1-20.6z" fill="#fff" stroke="#945CA2" stroke-width=".8" stroke-linejoin="round"/><path d="M99.7 141.5a2.1 2.1 0 0 0 2.1-2v-7.6a2.1 2.1 0 1 0-4.2 0v7.5a2.1 2.1 0 0 0 2.1 2.1z" fill="#fff" stroke="#945CA2" stroke-width=".8" stroke-linejoin="round"/><path d="M102.4 136.2l-3.2 1a5.7 5.7 0 0 1-7.1-3.8l-1.8-5.7L99 125l3.4 11.2zM111 144.6c-.2-1.3-3.6-1.2-4.8-.6-1.2.5-.8.8-.5 2.1 1.6 6.6 4.9 12.7 3.4 16l-11.5 6.7c-.3.2-2 0-3 .9l-2.9 2.8a.6.6 0 0 0 .8 1l1.9-1.6c.2 1.6 2.3 2 3.4 1.5l15.3-9.1c3.2-2.9-.8-11.7-2.1-19.7z" fill="#fff" stroke="#EE7B06" stroke-width=".8" stroke-linejoin="round"/><path d="M108.3 147.1c.6 0 1.3.2 1.9.4.4.3 1 .5 1.6.5.8-.2 1-1.2 1.2-2 .1-.6.2-1.3 0-2-.3-.9-.7-1.7-1.3-2.4a8.3 8.3 0 0 1-1.3-3.6l-.1-3c-.2-1-.6-2-1.3-3-.7-1-.9-2.4-1.6-3.5-.7-1.1-2-1.9-2.8-3-.6-1-1.5-1.9-2.6-2.5-1-.7-2-1.2-3-1.6-.8 0-1.6 0-2.4.3-.9 0-1.7 0-2.6.2a8.6 8.6 0 0 0-4.5 2.5c-1 1-1.2 2.4.2 3.1 1.6.8 3 .2 4.6.1.3 0 .6 0 .8.2.7.4.4 2.1.6 2.8.1.8.6 1.5 1.2 2l2 1a3 3 0 0 1 1.6 1.1c.6 1.2-.2 2.6-.2 4a3 3 0 0 0 1 2l1.1 1c.3.6.4 1 .4 1.6 0 .7.2 1.4.5 2a2.9 2.9 0 0 0 3 2l1.7-.1h.3z" fill="#fff" stroke="#021766" stroke-width=".8" stroke-miterlimit="10"/><path d="M71.8 300.8c-1-2.6-8.4 1.7-8.4 1.7l-1.2 1-1.2.8a.8.8 0 0 0-.2 1s0 .2.2.3l.2.2a1.6 1.6 0 0 0 1.3.4H64a8 8 0 0 0 2.7-.8l1.4-1c.1-.1 2.2-1 2.5-1 .5-.4 1.9-.8 1.2-2.6zM82.8 305.9c-1-2.6-8.3 1.7-8.3 1.7l-2.4 1.8a.8.8 0 0 0-.3 1l.2.3.2.2h.1a1.7 1.7 0 0 0 1.2.4H75a8 8 0 0 0 2.7-.8c.2 0 1.3-1 1.5-1l2.4-1c.6-.4 2-.8 1.2-2.6z" fill="#fff" stroke="#021766" stroke-width=".8" stroke-linejoin="round"/><path d="M83.3 270.4c1-1.3 1.5-3 1.5-4.6a2.4 2.4 0 0 0-1.2-2.6c-3.4-2.5-9.9-8.7-14.5-6.7-2.6 1-2.7 3.6-1.8 6.2a95.5 95.5 0 0 0-2.2 20c.5 5.3 1.5 10.8 1.5 16.2 0 3.4 5.3 3.4 5.4 0 0-5.3-1-10.7-1.5-16-.1-2.7 0-5.3.4-8 .1-1.7 2-4.9 4-3.7 1.3.3 2.4 5.2 1.7 7.9-.6 2.8-.8 5.7-.5 8.6.6 5.4 1.6 10.9 1.5 16.3 0 3.4 5.4 3.4 5.4 0 0-5.3-1-10.7-1.5-16 0-2.7 0-5.3.4-8 .3-3.2.8-6.4 1.4-9.6z" fill="#fff" stroke="#945CA2" stroke-width=".8" stroke-linejoin="round"/><path d="M67.7 251.2c.7-5.6 1-11.3 1.2-17 0-2.1-3.5-2.1-3.5 0 0 5.5-.4 11-1 16.4a14.9 14.9 0 0 0-.3 4.4l-.7 2.6a1.4 1.4 0 0 0-1.7.4l-.3.4c-.3.6 0 1.5.9 2l1.7 1.1a1.6 1.6 0 0 0 2.3 0l.2-.5a1.2 1.2 0 0 0-.1-1.3l.2-.5c.3-1.4 1.1-3.3.9-4.9l.2-3.1zm-3.6 3.6c0-.2 0-.2 0 0z" fill="#fff" stroke="#021766" stroke-width=".8" stroke-miterlimit="10"/><path d="M66.2 230.3c-1.5 2.4-1.7 6.1-2.2 9.6a1.5 1.5 0 0 0 1.3 2l3.8 1.4c.8 0 1.5-1.6 1.6-2.4l1.4-8.8a2.8 2.8 0 0 0-2-3.2 3.2 3.2 0 0 0-4 1.4z" fill="#fff" stroke="#1060E1" stroke-width=".8" stroke-linejoin="bevel"/><path d="M86.2 242s1-6.5-2.3-8.4l-6.7-4c-3.1-2-7.4-2.6-9.6.3-.4.4-.6.9-.7 1.4a9 9 0 0 0-.1 2.4 203.9 203.9 0 0 1 0 26.3 1.5 1.5 0 0 0 .7 1 26.6 26.6 0 0 0 14.2 7.2c.9 0 1.7-.2 2.5-.7a2 2 0 0 0 1.1-1.6c-1-9.8 0-16.3.2-24.2l.7.2z" fill="#fff" stroke="#1060E1" stroke-width=".8" stroke-linejoin="bevel"/><path d="M77.7 223.3v-3.8a4.5 4.5 0 0 0-9 .3l.1 5.6c.1 2.5 1.1 3.5 3.8 3.3 1.4 0 1.3 2.7 1.3 2.7.5 3 5.8 1 5.1-.7l-1.4-4c.2-.5.2 0 .2-.5" fill="#fff"/><path d="M77.7 223.3v-3.8a4.5 4.5 0 0 0-9 .3l.1 5.6c.1 2.5 1.1 3.5 3.8 3.3 1.4 0 1.3 2.7 1.3 2.7.5 3 5.8 1 5.1-.7l-1.4-4c.2-.5.2 0 .2-.5" stroke="#021766" stroke-width=".8" stroke-miterlimit="10"/><path d="M81.2 220c-.2-5-5-7.3-9.4-5.5-1.6.6-3.5 1.2-4.2 2-1.3 1.2-.1 3.6 1.6 4.3 1.3.4 2.7.4 4-.1a2 2 0 0 1 2.4 1.6 1.5 1.5 0 0 0 .7 1l.8.8c.2-.3.3-.6.6-.8a1 1 0 0 1 1.6.4 2.2 2.2 0 0 1-.7 2.2 1 1 0 0 1-1 .3l-.2.4a.8.8 0 0 0 .2.9.8.8 0 0 0 .8.1c3.5-1.4 2.8-7.6 2.8-7.6z" fill="#fff" stroke="#6E4E47" stroke-width=".8" stroke-miterlimit="10"/><path d="M88.4 247.2c-.2-3.5-1-7-2.4-10.2-.9-2-4.2-1.1-3.4 1a28.6 28.6 0 0 1 2.6 10.7c0 1.3-.2 4.4-.9 4.9-1.6.1-4.8-5.6-6.3-8.3 0-.2-.2-.4-.4-.5 0-.2 0-.4-.2-.5l-1.1-1.5a1 1 0 0 0-1.3-.1 1 1 0 0 0-.3 1h-2c-1.3.2-2 .6-2.2 1.6v1a2 2 0 0 0 2 1.2c1 0 2 .2 3 .6 1.7 2.9 9.3 11.6 11 9.4a14 14 0 0 0 1.9-4.6 21 21 0 0 0 0-5.7z" fill="#fff" stroke="#021766" stroke-width=".8" stroke-miterlimit="10"/><path d="M80.8 237l1.7 9.2c1.1 2.5 6.7.5 6-1.6l-2.4-8.7a2.9 2.9 0 0 0-3.2-2 2.6 2.6 0 0 0-2 3.1z" fill="#fff" stroke="#1060E1" stroke-width=".8" stroke-linejoin="bevel"/><path d="M69.1 262.7L55 254.6c-.2-.1-.2-.3 0-.4l6.8-3.9a.7.7 0 0 1 .6 0l14.2 8.2c.1 0 .1.2 0 .4l-6.8 3.9a.7.7 0 0 1-.7 0z" fill="#fff" stroke="#021766" stroke-width=".8" stroke-miterlimit="10"/><path d="M69.3 262.7l-14-8c-.4-.2-.6-.6-.7-1l-1.3-8.7c0-.4.1-.5.4-.4l14.1 8a1.5 1.5 0 0 1 .7 1l1.3 8.8c0 .3-.2.5-.5.3z" fill="#fff" stroke="#021766" stroke-width=".8" stroke-miterlimit="10"/><path d="M49.5 289.6s-7.3-4.3-8.4-1.7c-.7 1.8.7 2.2 1.2 2.5l6.8 2.5c1.3.4 4 0 2.8-1.8-.7-.6-1.5-1-2.4-1.5z" fill="#fff" stroke="#894E4E" stroke-width=".8" stroke-miterlimit="10"/><path d="M52.4 232c.2-2.4-2.6 1.2-3 1.8-1.1-4.2-2.3-10.7-3.9-15.4-.9-2.7-4.2-1.5-3 1.2a21 21 0 0 1 2.1 7.5c.2 2.3 0 4.5 0 6.7 0 2 .2 4.1.7 6.1.4 1.3-.8-4 .7-4.2 1.5-.1 2.1 4.7 3.5 3 .8-1 4-4 3.6-6.2 0-.6-.8.7-.7-.4z" fill="#fff" stroke="#945CA2" stroke-width=".8" stroke-linejoin="round"/><path d="M33 295.3c-.2-.4-2-4.3-4-3.5-2.2 1-.7 5.3 1.4 7.3.6.8 1.4 1.6 2.3 2.3 2.3 1.1 3.5-.4 2.4-2.3l-2-3.8z" fill="#fff" stroke="#894E4E" stroke-width=".8" stroke-miterlimit="10"/><path d="M47.4 261.3l-1.5-10.5c.7-2.7.5-5.4-2.4-6.6-3.2-1.4-7.3 1.2-10.6 3.7-1.7-2-5.7-.6-4.8 2.3l.8 2.8-.3.4c-.6 1.5-.1 5.5 1.2 6.7.2 4.4 0 8.7-.4 13-.3 3.6-.8 7.1-1.2 10.7-.4 2.3-.6 4.6-.7 7 0 3.4 5.5 3.5 5.4 0 0-2.4.3-4.7.7-7l1.2-11c.3-4.3 2.1-14 4.2-14 2 0 2.8 1.2 3 3.2.4 2.6.5 5.3.4 8-.5 5.2-1.5 10.6-1.5 16 0 3.4 5.4 3.4 5.4 0 0-5.5 1-11 1.5-16.3.1-2.8 0-5.6-.4-8.4z" fill="#fff" stroke="#00BC70" stroke-width=".8" stroke-linejoin="round"/><path d="M28.7 221.3c-3.2 2-2.3 8.3-2.3 8.3l.7-.2c.3 7.8 2.5 14.2 1.5 24l6.6-2.2c-1.4 2-2.4 3.7-1.8 3.3 4.5-1.6 8.9-3.4 11.5-6.5l1-.4c-.1.1-.2-.1-.2-.5a1.3 1.3 0 0 0-.1-1.2c-.5-7.7-.5-15.4-.1-23l.3-1.5a9 9 0 0 0 0-2.4l-.8-1.3" fill="#fff"/><path d="M28.7 221.3c-3.2 2-2.3 8.3-2.3 8.3l.7-.2c.3 7.8 2.5 14.2 1.5 24l6.6-2.2c-1.4 2-2.4 3.7-1.8 3.3 4.5-1.6 8.9-3.4 11.5-6.5l1-.4c-.1.1-.2-.1-.2-.5a1.3 1.3 0 0 0-.1-1.2c-.5-7.7-.5-15.4-.1-23l.3-1.5a9 9 0 0 0 0-2.4l-.8-1.3" stroke="#945CA2" stroke-width=".8" stroke-linejoin="round"/><path d="M38.2 253.6l-4.7 1.9c-1.3.7-4.3-1.8-4.3-1.8 1-10.5-2-17.2-2.1-25.8l.6-.3c.4 10 2 25.6 10.5 26z" fill="#F1A32F"/><path d="M31 218.7s5.4 6 6.5 20c.2 4.1.7 8.2 1.4 12.2a3.3 3.3 0 0 1-1.7 3.5 11.5 11.5 0 0 1-7 1.2 2 2 0 0 1-1.7-2c.7-8.6 0-17.2-2.2-25.4l1-5.5c0-.5.1-1 .4-1.5l3.2-2.5zM40.3 216.4S44 226 42.1 250a1 1 0 0 0 1.5 1l2.4-1.4a2 2 0 0 0 .9-1.8c-.2-4.8-.4-24.2-.4-24.2s.7-8.6-6-8.2c-1.3 0-.2 1-.2 1z" fill="#fff" stroke="#945CA2" stroke-width=".8" stroke-linejoin="round"/><path d="M42 215.7c.6 3.3 1.4 6.5 2.3 9.7h-1.5l1.9 3-2 11c.1-8.2-.8-16.4-2.8-24.4 1.5 0 .4 0 2.1.7z" fill="#fff" stroke="#945CA2" stroke-width=".8" stroke-linejoin="round"/><path d="M39.4 217l1.4-.1a3.8 3.8 0 0 0 3.3-4.3l-1.3-6.9c-.3-2-1.8-3.6-3.9-3.3" fill="#fff"/><path d="M39.4 217l1.4-.1a3.8 3.8 0 0 0 3.3-4.3l-1.3-6.9c-.3-2-1.8-3.6-3.9-3.3" stroke="#BF6A2B" stroke-width=".8" stroke-miterlimit="10"/><path d="M33.2 216.6c-.3 4.2 5.3 5 5.5 2V217c.2 0 1.1-2.5 1.4-2.5" fill="#fff"/><path d="M33.2 216.6c-.3 4.2 5.3 5 5.5 2V217c.2 0 1.1-2.5 1.4-2.5" stroke="#BF6A2B" stroke-width=".8" stroke-miterlimit="10"/><path d="M30.4 252.6s-3.1-2.6-3.2-3.6c-.4-3 4.9 1 4.9 1l-1.7 2.6z" fill="#fff" stroke="#BF6A2B" stroke-width=".8" stroke-miterlimit="10"/><path d="M30.3 219.2l3 8 1.3.3-.6 3.3 3.6 9.5a69.9 69.9 0 0 0-2.6-16c-.6-2.2-2.7-6.1-1.2-8-1 .6-2.2 1.8-3.5 3zM29.4 246.3c-1.2-2.3-4.4-4.7-4.6-7.4-.3-3 2.7-5.5 5.8-10.4 1.5-2.5-3-8.8-4.3-5.9-3 6.4-7 13-6.3 16.8.5 2.7 4.4 9.2 5.7 10.5 2.8 2.5 5.2-1 3.7-3.6z" fill="#fff" stroke="#945CA2" stroke-width=".8" stroke-linejoin="round"/><path d="M30 253.1l2.6-4" stroke="#945CA2" stroke-width=".8" stroke-linecap="round" stroke-linejoin="round"/><path d="M53.6 230c-.3 1-2.3-.1-2.3 2 0 1.6 2.3 1.8 3.6 0a6 6 0 0 0 .6-3.3c-.1-1.7-1.3-1-2 1.3z" fill="#fff" stroke="#BF6A2B" stroke-width=".8" stroke-miterlimit="10"/><path d="M36.1 209c-.2-.9 1.1-1.5 2-1.3a4.1 4.1 0 0 0 3.8-.6 2.5 2.5 0 0 0 0-4.2 5.3 5.3 0 0 0-2.6-1.3c-4.7-1-8.7 1.8-8.8 6.8 0 0-.2 7.4 3.1 8 1.5.3.7-2.2.7-2.2s-2.1-1.8-.7-3.4c.5-.5 1.1-.3 1.7.5l.3 2.1c.8 2.2 2.4 4.6 5.4 4.2 4-.4 3.4-2.7 3.1-4.7l-.2-1.3a4.8 4.8 0 0 1-3.6 2.6c-1 0-2.5-1.3-3-2-.5-1-1-2-1.2-3.2z" fill="#fff" stroke="#6E4E47" stroke-width=".8" stroke-miterlimit="10"/><path d="M114.5 295.9c.2 0 1.6-1 1.7-1l2.5-1c.7-.3 2.2-.3 1.8-2.4-.7-3-9 .7-9 .7l-2.9 1.8a1 1 0 0 0-.5 1 1.8 1.8 0 0 0 1.9 1.4c1.5.1 3 0 4.5-.5z" fill="#fff" stroke="#1060E1" stroke-width=".8" stroke-linejoin="bevel"/><path d="M114.8 294.3c.1 0 1.4-1 1.6-1 .1-.1 2.4-1 2.7-1 .7-.4 2.1-.7 1.5-2.7-1-3-9.2 1.3-9.2 1.3l-2.7 1.8a.8.8 0 0 0-.4 1 2 2 0 0 0 2 1.3c1.5 0 3-.2 4.5-.7z" fill="#fff" stroke="#1060E1" stroke-width=".8" stroke-linejoin="bevel"/><path d="M145.8 232.5a2.9 2.9 0 0 1 1.7 2.3" fill="#fff"/><path d="M145.8 232.5a2.9 2.9 0 0 1 1.7 2.3" stroke="#945CA2" stroke-width=".8" stroke-linejoin="round"/><path d="M123.7 300.5l1.7-2.5.4-1.4c.1-.6.3-1-1-2.3-2.4-2-6.8 5.7-6.8 5.7l-.6 2a1.1 1.1 0 0 0 .3 1l.2.2a2.6 2.6 0 0 0 2.8 0 8.8 8.8 0 0 0 3-2.7z" fill="#fff" stroke="#1060E1" stroke-width=".8" stroke-linejoin="bevel"/><path d="M125 293.7c-1.9-1.2-3.4.5-4.7 2.3l-1.6 2-.8 1.5-.5 1.4c-.2.5.4.8.7 1a2.4 2.4 0 0 0 2.4 0l1.3-.8a7 7 0 0 0 1.8-1.6c0-.1 3.5-4.4 1.4-5.8z" fill="#fff" stroke="#1060E1" stroke-width=".8" stroke-linejoin="bevel"/><path d="M132.5 235.8a23 23 0 0 1-2 7c-1 2-2.3 3.8-3.3 5.8-.7 1.9-1.1 3.8-1 5.8 0 2.5-.6 5-1.7 7.3-1 2.2 2.2 4 3.2 1.9 1.3-2.5 2-5.2 2.2-8 0-2 0-3.7.8-5.5 1-2 2.3-3.7 3.2-5.6 1.1-2.5 1.9-5.1 2.2-7.8.4-2.3-3.3-3.4-3.6-1z" fill="#fff" stroke="#021766" stroke-width=".8" stroke-miterlimit="10"/><path d="M133 234.4l-4 9.3c-.4 2.9 6 4.2 6.7 1.8l3-9.2a3 3 0 0 0-1.9-3.6 3 3 0 0 0-3.8 1.7z" fill="#fff" stroke="#945CA2" stroke-width=".8" stroke-linejoin="round"/><path d="M137.3 256.6l-11.4 4c-2.2.6-4.2 1.5-6 2.7-1.7 1.2-3 3-3.9 4.9-1.1 2.4-1.3 5-1.5 7.6-.4 4.4-.4 8.8.2 13.1.2 1.6 2.2 2.4 3.6 2a3 3 0 0 0 2-3.6c-.5-4.2-.4-8.4.1-12.7l.2-1.3v-.1-.6l.3-1.3c-.2.8 0 .1 0-.1l.5-.9.8-1.4c.5-.7-.2.2.1-.1l.5-.5.3-.3a18.6 18.6 0 0 1 1.7-1c.4 0-.5.3.3 0l1-.4c4.2-1.5 8.5-2.8 12.7-4.4a3 3 0 0 0 2-3.6 3 3 0 0 0-3.6-2h.1z" fill="#fff" stroke="#6E4E47" stroke-width=".8" stroke-miterlimit="10"/><path d="M141.5 262c-3.5 2-7 4-10.3 6.4-2 1.4-3.7 3.2-4.9 5.4-.9 2.2-1.6 4.5-2.2 6.8-1.4 4.1-2.7 8.2-3.7 12.4-1 3.6 4.7 5.2 5.6 1.5 1-4 2.2-7.9 3.5-11.8l1-3.2a32.2 32.2 0 0 1 .7-2.3l.1-.3.7-1.2.4-.6c-.3.4-.1.1 0 0a23.4 23.4 0 0 1 2.1-2c3.2-2.2 6.6-4 10-6 3.4-2 .3-7-3-5v-.2z" fill="#fff" stroke="#6E4E47" stroke-width=".8" stroke-miterlimit="10"/><path d="M152.7 248.9s2-6.8-1.2-9.3a599 599 0 0 1-6.6-5.3c-3.1-2.6-7.6-4-10.4-1.2a4.3 4.3 0 0 0-1.4 3.2v.7 1.2c-.4 12.8-3 19.2-3.4 18.4l.2.1-.2.2c-1.7.9-1.9 2.3-.5 3.1 2.7 3.5 9.2 6.2 14.1 8.2 4.3 1.2 5.4-14 6.6-20.5l2.8 1.2z" fill="#fff" stroke="#945CA2" stroke-width=".8" stroke-linejoin="round"/><path d="M141.4 239.7c0 .3-.2.3-.4.2a1 1 0 0 1-.3-.7c0-.3.2-.4.4-.2a1 1 0 0 1 .3.7zM141.1 241.5c0 .3-.2.3-.4.2a.9.9 0 0 1-.3-.8c0-.2.2-.3.4-.1a.9.9 0 0 1 .3.7zM140.9 243.3c0 .3-.2.3-.4.2a1 1 0 0 1-.3-.8c0-.2.2-.3.4-.1a.9.9 0 0 1 .3.7z" fill="#945CA2"/><path d="M130 254.4s-.2 5.4.8 7.9c.4.9-.6 2.3-1.8 2.5a2.2 2.2 0 0 1-2.5-1.8l-.6-4.1" fill="#fff"/><path d="M130 254.4s-.2 5.4.8 7.9c.4.9-.6 2.3-1.8 2.5a2.2 2.2 0 0 1-2.5-1.8l-.6-4.1" stroke="#021766" stroke-width=".8" stroke-miterlimit="10"/><path d="M132.6 272.1l-15.4-8.9c-.2 0-.2-.2 0-.4l7.4-4.2a.8.8 0 0 1 .7 0l15.4 8.9c.2 0 .2.3 0 .4l-7.4 4.2a.8.8 0 0 1-.7 0z" fill="#fff" stroke="#1060E1" stroke-width=".8" stroke-miterlimit="10"/><path d="M132.6 272.1l-15.2-8.6a1.7 1.7 0 0 1-.8-1.1l-1.4-9.5c-.1-.4.1-.6.5-.4l15.2 8.7c.4.2.7.6.8 1l1.4 9.5c0 .5-.1.6-.5.4z" fill="#fff" stroke="#1060E1" stroke-width=".8" stroke-miterlimit="10"/><path d="M153.6 253.1c-.3-3.2-.9-6.4-1.2-9.5-.2-2.4-4-2.5-3.7 0 .2 2.8.7 5.6 1 8.4a50.2 50.2 0 0 1 0 8.8c-.6 1.7-2.6 1.6-4 1.6l-4.9.8c-.6 0-2.6-.6-4.2 0l-2 1.1c-1 .7-1.6 1.5-1 2 .5.4 2-.8 2-.8-.2.7.3 2.2 1.4 1.8l3.2-1.3c2.4-.6 4.3.3 6.8.1 2-.2 4-1 5.7-2.2 1.3-1 1.1-7.8.9-10.8z" fill="#fff" stroke="#021766" stroke-width=".8" stroke-miterlimit="10"/><path d="M147.3 243l.5 10c.9 3 7.3 1.3 6.8-1l-1.3-9.7a3 3 0 0 0-3.2-2.4 3 3 0 0 0-2.8 3.1z" fill="#fff" stroke="#945CA2" stroke-width=".8" stroke-linejoin="round"/><path d="M124.5 263c0 .4-.4.6-1 .2-.6-.3-1-1-1.3-1.6 0-.5.4-.6 1-.2.6.3 1.1.9 1.3 1.5z" fill="#fff" stroke="#1060E1" stroke-width=".8" stroke-miterlimit="10"/><path d="M146.3 230.8c-.4 1.4-.4 3.3.4 4.3a4 4 0 0 1-4.6 1.4c-2.9-1-2.5-4.5-2.5-4.5s4.5 1.6 5.4 0c1-1.7 1.3-1.2 1.3-1.2z" fill="#fff" stroke="#021766" stroke-width=".8" stroke-miterlimit="10"/><path d="M138.6 228.6c0-1.2 0-5 .5-6 .5-1.2 2.9-2.8 6-1 3.1 2 3.6 2 3.4 3.8-.3 1.7-2.8 6.2-5.1 6.3-2.3.1-4.4 0-4.6-1l-.2-2.1z" fill="#fff" stroke="#021766" stroke-width=".8" stroke-miterlimit="10"/><path d="M139.9 227.5c.6-.2.8-1.2.4-2.2-.4-1.1-1.2-1.8-1.8-1.6-.6.2-.8 1.3-.4 2.3.4 1 1.1 1.8 1.8 1.5zM143.2 225a3.2 3.2 0 0 1 1 2.8c-.2.9-1 1.1-1.6.5a3.1 3.1 0 0 1-1-2.7c.2-.9 1-1.1 1.6-.5z" fill="#fff" stroke="#021766" stroke-width=".8" stroke-miterlimit="10"/><path d="M140.4 226.2l1.2.3M144.1 226.8l2.7-.3" stroke="#021766" stroke-width=".8" stroke-miterlimit="10"/><path d="M141.7 236.2s2.5.6 5.3-2.7c0 0 1 2 1 2.6-.2.5-5 3.3-5 3.3l-1.3-3.2zM141.7 236.2s-2.2-.4-2-4.2l-1-.6a3 3 0 0 0-1 3.4c.5 1.1 1.2 2.3 2 3.3l2-2z" fill="#fff" stroke="#945CA2" stroke-width=".8" stroke-linejoin="round"/><path d="M140.7 222.4a3.9 3.9 0 0 1 3 .7c1.2.7 2.7 1 4.1.9l-.2.4c-.5 1-.8 2-.9 3.1-.3 2.2-1.1 2.4-1.6 2.6a3 3 0 0 1-2.5-.4c-1-.7-2-1-3.2-1l-.9.3c-.2 1 0 2.2.7 3 .8 1.1 1 1.6 3.4 1.8 2.4.2 4-2.8 4.3-3 .2-.3 1.4-.2 1.5-.5 0-.4-.1-.9 1.1-1.6 1.2-.8 1.3-1.8 1.9-3 .3-1.1.3-2.3 0-3.4-.2-.4-1.5-1-1.5-1a2.8 2.8 0 0 0-1.9-2c-1.2-.5-2.5.2-3.6 0-1-.3-1.6-.7-2.2-.8a2.6 2.6 0 0 0-3.2 1.6 1.6 1.6 0 0 0 1.7 2.3z" fill="#fff" stroke="#021766" stroke-width=".8" stroke-miterlimit="10"/><path d="M283.6 270.5a8.2 8.2 0 1 0 0-16.5 8.2 8.2 0 0 0 0 16.5z" fill="#fff" stroke="#021766" stroke-width=".8" stroke-linejoin="round"/><path d="M288.2 257.5c0-1.5-2-2.7-4.6-2.7-2.6 0-4.7 1.2-4.8 2.7 0 1.5 2.1 2.7 4.7 2.7s4.7-1.2 4.7-2.7z" fill="#fff" stroke="#021766" stroke-width=".8" stroke-linejoin="round"/><path d="M279 258c.2-.6.6-1.1 1.2-1.4a7.3 7.3 0 0 1 6.7 0c.6.3 1 .8 1.3 1.4" fill="#fff"/><path d="M279 258c.2-.6.6-1.1 1.2-1.4a7.3 7.3 0 0 1 6.7 0c.6.3 1 .8 1.3 1.4" stroke="#021766" stroke-width=".8" stroke-linejoin="round"/><path d="M282.4 257.4c.8-1.2-1.1-3.4-2-4.2-1.2-1.4-2.8-2.7-3.2-4.5-.5-2 .6-4.2 0-6.2-.4-1.2-1.3-2.3-1.5-3.6-.2-1.6 1-3 1.4-4.7.2-.8.2-1.7.3-2.6.3-1.1 1-2.3 2.4-2.3.6 0 1.1.2 1.6.6a4.8 4.8 0 0 1 1.3 3.7v3.5c.4 2 1 3.8 2 5.5 1 1.8 1.3 3.8 1 5.7-.7 2.1-3 3.9-3 6 0 .7.6 2 .2 2.8-.4.7-.5.3-.5.3z" fill="#fff" stroke="#00BC70" stroke-width=".8" stroke-linejoin="round"/><path d="M285.8 236.1l1.7-1.6c1.7-2.3-1.2-6 .5-8.4l1.4-1.4c1-1.1 1.5-2.5 1.4-4 0-1.5-.3-3-.4-4.4l.1-.5c.3-.4 1-.2 1.3.1a8.2 8.2 0 0 1 2.9 5.8c.1 2-.5 4.2.5 6 .6 1 1.6 1.6 1.9 2.7.5 1.9-1.6 3.8-1 5.6l1 1.5a4.6 4.6 0 0 1 .2 4.2 6.2 6.2 0 0 1-3 3l-1.2.7c-1.2 1.1 0 3.2-.5 4.8-.6 2.1-3.6 2.4-5.1 4-.5.6-1 1.3-1 2.1-.2.4-.2.8-.3 1.3l-.1 1h-.3a.7.7 0 0 1-.7-.3c-.3-2.9-.7-5.6.4-8.3.7-1.3 1.3-2.6 1.7-3.9a5.3 5.3 0 0 0-2.2-5.3l-.6-.5a2.6 2.6 0 0 1 0-2.2c.3-.8.8-1.5 1.4-2z" fill="#fff" stroke="#00BC70" stroke-width=".8" stroke-linejoin="round"/><path d="M285.6 258.4c.7-9.8 7.8-15 6.6-30z" fill="#fff"/><path d="M285.6 258.4c.7-9.8 7.8-15 6.6-30" stroke="#00BC70" stroke-width=".8" stroke-linejoin="round"/><path d="M279.7 234c1 3.6 1.6 7.3 1.9 11 .2 3.1-.3 6.8.7 9.8" fill="#fff"/><path d="M279.7 234c1 3.6 1.6 7.3 1.9 11 .2 3.1-.3 6.8.7 9.8" stroke="#00BC70" stroke-width=".8" stroke-linejoin="round"/><path d="M386.2 158.4l2.4-1.4 3.3-.2-2.4 1.4-3.3.2z" fill="#fff" stroke="#1060E1" stroke-width=".5" stroke-linecap="round" stroke-linejoin="round"/><path d="M389.5 158.2l2.4-1.4 4.7 2.5-2.5 1.4-4.6-2.5z" fill="#fff" stroke="#1060E1" stroke-width=".5" stroke-linecap="round" stroke-linejoin="round"/><path d="M394.1 160.7l6.3 7.1v1.6l-6.3-1-4.6-2.8-3.3-4v-3.2l3.3-.2 4.6 2.5z" fill="#fff" stroke="#1060E1" stroke-width=".5" stroke-linecap="round" stroke-linejoin="round"/><path d="M394.1 160.7l2.4-1.4 6.3 7.1-2.4 1.4-6.3-7z" fill="#fff" stroke="#1060E1" stroke-width=".5" stroke-linecap="round" stroke-linejoin="round"/><path d="M400.4 167.8l2.4-1.4v1.6l-2.4 1.4v-1.6zM393.1 147.3h-2.4v2.5a1.2 1.2 0 0 0 .7 1 3.8 3.8 0 0 0 3.4 0 1.2 1.2 0 0 0 .7-1v-2.5h-2.4z" fill="#fff" stroke="#1060E1" stroke-width=".5" stroke-linecap="round" stroke-linejoin="round"/><path d="M391.4 146.3a1.2 1.2 0 0 0-.7 1 1.2 1.2 0 0 0 .7 1 3.8 3.8 0 0 0 3.4 0 1.2 1.2 0 0 0 .7-1 1.2 1.2 0 0 0-.7-1 3.8 3.8 0 0 0-3.4 0z" fill="#fff" stroke="#1060E1" stroke-width=".5" stroke-linecap="round" stroke-linejoin="round"/><path d="M417.6 160.5l-22.3-12.7c0 .3-.1.3-.5.5l-1.3.4 22.3 12.8 1.8-1z" fill="#fff" stroke="#1060E1" stroke-width=".5" stroke-linecap="round" stroke-linejoin="round"/><path d="M397.4 160l7.9-4.5-1.8-1.1-7.4 4.4" stroke="#1060E1" stroke-width=".5" stroke-linecap="round" stroke-linejoin="round"/><path d="M391.3 162.6l-10.9 6.6 1.8 1 11-6.6-2-1zM417.4 161.5h-2.5v2.5a1.2 1.2 0 0 0 .7 1c.6.3 1.2.4 1.8.4.6 0 1.2-.1 1.7-.4a1.2 1.2 0 0 0 .7-1v-2.5h-2.4z" fill="#fff" stroke="#1060E1" stroke-width=".5" stroke-linecap="round" stroke-linejoin="round"/><path d="M415.6 160.5a1 1 0 1 0 0 2 3.8 3.8 0 0 0 3.5 0 1 1 0 0 0 0-2 3.8 3.8 0 0 0-3.5 0z" fill="#fff" stroke="#1060E1" stroke-width=".5" stroke-linecap="round" stroke-linejoin="round"/><path d="M416.8 161.8a1.4 1.4 0 0 0 1.2 0 .4.4 0 0 0 0-.7 1.4 1.4 0 0 0-1.2 0 .4.4 0 0 0 0 .7z" stroke="#1060E1" stroke-width=".5" stroke-linecap="round" stroke-linejoin="round"/><path d="M424 157.6l-4.2 3.4h-.1l-2.2.7h-.2l-.1-.2.6-1.3v-.1l5-3.1a.4.4 0 0 1 .3 0l1 .4v.2zm-6.2 3.7l1.6-.5 4.1-3.3-.5-.2-4.8 3-.4 1" fill="#1060E1"/><path d="M416.9 163l-5 3.1a.4.4 0 0 1-.4 0l-.9-.4v-.2l4.3-3.5h.1l2.2-.5a.1.1 0 0 0 0 .1h.3l-.6 1.3v.1zm-5.7 2.6l.5.3 4.8-3 .4-1-1.6.4-4.1 3.3" fill="#1060E1"/><path d="M369.5 163.8h-2.4v2.5a1.2 1.2 0 0 0 .7 1 3.8 3.8 0 0 0 3.4 0 1.2 1.2 0 0 0 .7-1v-2.5h-2.4z" fill="#fff" stroke="#1060E1" stroke-width=".5" stroke-linecap="round" stroke-linejoin="round"/><path d="M367.8 162.8a1 1 0 1 0 0 2 3.8 3.8 0 0 0 3.4 0 1 1 0 0 0 0-2 3.7 3.7 0 0 0-3.4 0z" fill="#fff" stroke="#1060E1" stroke-width=".5" stroke-linecap="round" stroke-linejoin="round"/><path d="M394.2 177l-22.3-13c0 .4-.5.6-.8.8l-1.2.3 22.4 13 1.9-1zM394.5 178.5h-2.4v2.5a1.2 1.2 0 0 0 .7 1c.5.2 1.1.4 1.7.4.6 0 1.2-.2 1.7-.4a1.2 1.2 0 0 0 .8-1v-2.5h-2.5z" fill="#fff" stroke="#1060E1" stroke-width=".5" stroke-linecap="round" stroke-linejoin="round"/><path d="M392.8 177.5a1 1 0 1 0 0 2 3.8 3.8 0 0 0 3.4 0 1 1 0 1 0 0-2 3.8 3.8 0 0 0-3.4 0z" fill="#fff" stroke="#1060E1" stroke-width=".5" stroke-linecap="round" stroke-linejoin="round"/><path d="M368.9 164.1a1.3 1.3 0 0 0 1.2 0 .4.4 0 0 0 0-.7l-.6-.1-.6.1a.4.4 0 0 0 0 .7z" stroke="#1060E1" stroke-width=".5" stroke-linecap="round" stroke-linejoin="round"/><path d="M376.8 160.1l-5 3.2-2.1.5h-.3v-.1l.9-1.3 5.4-2.9a.3.3 0 0 1 .4 0l.7.4v.2zm-6.7 3.4l1.4-.4 4.7-3-.3-.2-5.2 2.7-.6.8" fill="#1060E1"/><path d="M368.8 165.1h-.1l-5.4 3a.4.4 0 0 1-.4 0l-.7-.5v-.2l5-3.1 2.1-.6v.2h.3l-.8 1.2zm-5.7 2.6l5.2-2.7.6-.9-1.4.4-4.7 3 .3.2" fill="#1060E1"/><path d="M392.5 147.5a1.4 1.4 0 0 0 1.2 0 .4.4 0 0 0 0-.7l-.6-.1-.6.1a.4.4 0 0 0 0 .7z" stroke="#1060E1" stroke-width=".5" stroke-linecap="round" stroke-linejoin="round"/><path d="M393.2 147.3l-1.4 1h-.1l-6.8 1.7h-.2l-.6-.6.1-.2 6.4-2h2.5s-.1 0 0 0h.1zm-8.2 2.5l6.4-1.6 1.1-.9h-1.8l-6 2 .3.4M402.2 145l-.1.1-6.4 2.1h-2.5-.2v-.1l1.4-1.1h.1l6.8-1.7h.2l.7.6zm-6.7 2l6.1-2-.3-.4-6.5 1.6-1 .8h1.8" fill="#1060E1"/><path d="M394 178.8a1.3 1.3 0 0 0 1.3 0 .4.4 0 0 0 0-.7l-.6-.1-.6.1a.4.4 0 0 0 0 .7z" stroke="#1060E1" stroke-width=".5" stroke-linecap="round" stroke-linejoin="round"/><path d="M402 174.8l-5 3.2-2.1.5h-.3s-.1 0 0-.1l.8-1.3h.1l5.4-2.8a.4.4 0 0 1 .4 0l.7.4v.1zm-6.8 3.3l1.5-.3 4.7-3-.3-.2-5.2 2.7-.7.9" fill="#1060E1"/><path d="M394 179.8h-.1l-5.4 2.9a.4.4 0 0 1-.4 0l-.7-.4v-.2l5-3.2 2.1-.5a.1.1 0 0 0 0 .2h.3l-.9 1.2zm-5.7 2.6l5.2-2.7.6-1-1.4.5-4.8 3 .4.2" fill="#1060E1"/><path d="M154.3 289.3l-9.1 5.3h-.1l-.5.7a2 2 0 0 0-.3.8v.1l9.3 5.4v-.2a1.9 1.9 0 0 1 .7-1.3l9.3-5.3-9.3-5.5zM154.2 300.2z" fill="#fff" stroke="#945CA2" stroke-width=".5" stroke-linecap="round" stroke-linejoin="round"/><path d="M153.6 301.6v-.2.2l-9.3-5.4v7.6l9.3 5.5v-7.7zM154.4 300.1a1.9 1.9 0 0 0-.8 1.3v7.9l10-5.8v-8.8l-9.2 5.4zM126 307.1v3.5l-1.9-1v-4.2l1.3.7.6 1z" fill="#fff" stroke="#945CA2" stroke-width=".5" stroke-linecap="round" stroke-linejoin="round"/><path d="M134.7 299.3l1.2.6-10.5 6.2-1.3-.7 10.6-6.1zM136.4 301l.1 3.4-10.4 6.2V307l10.3-6.2z" fill="#fff" stroke="#945CA2" stroke-width=".5" stroke-linecap="round" stroke-linejoin="round"/><path d="M125.4 306.1L136 300l.5 1-10.4 6.2-.6-1zM125 307.4v2l-5 3v-2l5-3z" fill="#fff" stroke="#945CA2" stroke-width=".5" stroke-linecap="round" stroke-linejoin="round"/><path d="M133.7 304a5.7 5.7 0 0 1 2-4.8 2 2 0 0 1 1.6-.4l1 .1 18 2.7 3.4.4-1.2-.6-.4-.1-3.3-.4-18.1-2.7-1-.2a2 2 0 0 0-1.5.5 5.7 5.7 0 0 0-2 4.7 1.8 1.8 0 0 0 .9 1.5l1.5.7a1.8 1.8 0 0 1-.9-1.5z" fill="#fff" stroke="#945CA2" stroke-width=".5" stroke-linecap="round" stroke-linejoin="round"/><path d="M159.8 302h-.1l-3.4-.4-18-2.7-1-.1a2 2 0 0 0-1.6.4 5.7 5.7 0 0 0-2 4.7 1.8 1.8 0 0 0 .9 1.5l.3.1H135.2l2 .2 19.1 3 1 .1h.1c.5 0 1-.2 1.4-.5a5.7 5.7 0 0 0 2-4.7 1.7 1.7 0 0 0-1-1.5z" fill="#fff" stroke="#945CA2" stroke-width=".5" stroke-linecap="round" stroke-linejoin="round"/><path d="M137.8 301.3a2.7 2.7 0 0 1-1 2.3c-.6.5-1.2.3-1.3-.5a2.7 2.7 0 0 1 1-2.3c.6-.5 1.2-.2 1.3.5zM122.8 317.1a2.9 2.9 0 0 0 0-2.6s0-.2-.2-.3l2.3-1.2.1.2a2.9 2.9 0 0 1 0 2.6c0 .2-.2.4-.4.5l-2 1.2.2-.4z" fill="#fff" stroke="#945CA2" stroke-width=".5" stroke-linecap="round" stroke-linejoin="round"/><path d="M122.3 314l-6.1-3.4h-.9l2.4-1.4a.6.6 0 0 1 .5 0h.1l6.1 3.5c.2 0 .3.1.4.3l-2.2 1.2-.3-.2z" fill="#fff" stroke="#945CA2" stroke-width=".5" stroke-linecap="round" stroke-linejoin="round"/><path d="M115 311c.3-.5.7-.7 1-.5h.2l6 3.4.4.3.2.3a2.9 2.9 0 0 1 0 2.5c0 .2-.2.3-.3.4h-.1a.7.7 0 0 1-.6 0l-6.2-3.5a1 1 0 0 1-.6-.5 2.8 2.8 0 0 1 0-2.5zM161.2 343.7V335c0 3-1.9 5.9-5.7 8-7.7 4.5-20.1 4.5-27.8 0-3.8-2.2-5.8-5-5.8-8v8.6c0 2.9 2 5.8 5.8 8a30.7 30.7 0 0 0 27.8 0c3.9-2.2 5.8-5.1 5.7-8z" fill="#fff" stroke="#945CA2" stroke-width=".5" stroke-linecap="round" stroke-linejoin="round"/><path d="M127.7 343.1a30.7 30.7 0 0 0 27.8 0c3.8-2.1 5.7-5 5.7-8 0-2.9-2-5.8-5.8-8a30.7 30.7 0 0 0-27.8 0c-3.8 2.2-5.7 5.1-5.7 8 0 2.8 2 5.8 5.8 8z" fill="#fff" stroke="#945CA2" stroke-width=".5" stroke-linecap="round" stroke-linejoin="round"/><path d="M141.7 344.3c-4.2.1-8.4-.9-12-2.8-3.2-1.9-5-4.3-5-7 0-2.6 1.7-5.1 4.9-7a26.3 26.3 0 0 1 23.8 0c3.2 2 5 4.4 5 7 0 2.7-1.7 5.2-5 7-3.6 2-7.6 3-11.8 2.8z" fill="#fff" stroke="#945CA2" stroke-width=".5" stroke-linecap="round" stroke-linejoin="round"/><path d="M141.7 317l-10.7 6.4c-.4.2-.6.5-.7.8-.2.3-.3.7-.3 1v.1l11 6.3v-.2a2.2 2.2 0 0 1 .8-1.5l11-6.3-11-6.5zM141.7 330zM141.9 329.9z" fill="#fff" stroke="#945CA2" stroke-width=".5" stroke-linecap="round" stroke-linejoin="round"/><path d="M141 331.6v-.2.2l-11-6.3v9l11 6.4v-9.1z" fill="#fff" stroke="#945CA2" stroke-width=".5" stroke-linecap="round" stroke-linejoin="round"/><path d="M141.9 329.9a2.2 2.2 0 0 0-1 1.5v9.3l12-6.8v-10.4l-11 6.3zM159 301.8c.8-.1 1.7 0 2.5.3l-2.3-1.1-.6-.4c-.8-.2-1.6-.3-2.3-.1a8.4 8.4 0 0 0-4.5 2.5l2.6 1.3a8.4 8.4 0 0 1 4.5-2.5z" fill="#fff" stroke="#945CA2" stroke-width=".5" stroke-linecap="round" stroke-linejoin="round"/><path d="M151.8 303c-.7.6-1.2 1.3-1.6 2.1v.2L139.3 329l-.5 1.5c-.7 2.5.1 4.5 1.9 5.6l.4.2 2.2 1.1c-1.7-1-2.5-3-1.9-5.5l.5-1.6 10.9-23.8v-.1c.4-.8 1-1.5 1.6-2.2l-2.6-1.3z" fill="#fff" stroke="#945CA2" stroke-width=".5" stroke-linecap="round" stroke-linejoin="round"/><path d="M161.5 302.1c-.8-.3-1.7-.4-2.6-.3a8.7 8.7 0 0 0-6 4.7h-.1l-10.9 23.9-.5 1.5c-.6 2.5.2 4.5 1.9 5.6 1.3.7 2.7.9 4.2.6 4.3-.7 8.7-4.6 9.7-8.7l5.8-23.5a3.1 3.1 0 0 0-1.5-3.8z" fill="#fff" stroke="#945CA2" stroke-width=".5" stroke-linecap="round" stroke-linejoin="round"/><path d="M156.1 313.6a8.4 8.4 0 0 1 3-7 2.6 2.6 0 0 1 2.8-.5l-1.8-1c-.1-.2-.3-.4-.6-.4a2.7 2.7 0 0 0-2.5.6 8.4 8.4 0 0 0-3 7 2.6 2.6 0 0 0 1.5 2.3l1.5.9a3 3 0 0 1-.9-1.9z" fill="#fff" stroke="#945CA2" stroke-width=".5" stroke-linecap="round" stroke-linejoin="round"/><path d="M163.2 308.3a3 3 0 0 0-1-2c-.8-.6-1.9-.5-3 .4a8.4 8.4 0 0 0-3 7c0 .7.3 1.3.7 1.8.8.8 2 .8 3.3-.1a8.5 8.5 0 0 0 3-7z" fill="#fff" stroke="#945CA2" stroke-width=".5" stroke-linecap="round" stroke-linejoin="round"/><path d="M161.1 308a.2.2 0 0 0 0-.1.3.3 0 0 0-.3 0 .7.7 0 0 0-.3.6.2.2 0 0 0 .1.2h.3a.7.7 0 0 0 .2-.6zM159.6 308.6a.2.2 0 0 0-.2-.2.3.3 0 0 0-.2 0 .7.7 0 0 0-.3.7.2.2 0 0 0 .1.2.2.2 0 0 0 .3 0 .8.8 0 0 0 .3-.7zM158.6 310.2a.3.3 0 0 0-.1-.2.3.3 0 0 0-.3 0 .8.8 0 0 0-.2.7.3.3 0 0 0 0 .1.2.2 0 0 0 .3 0 .8.8 0 0 0 .3-.6zM158.3 312a.2.2 0 0 0-.1-.3.3.3 0 0 0-.2.1.7.7 0 0 0-.3.6.3.3 0 0 0 0 .2h.4a.7.7 0 0 0 .2-.7zM159 313.7a.2.2 0 0 0-.2-.2.2.2 0 0 0-.2 0 .8.8 0 0 0-.3.7.2.2 0 0 0 .1.1.2.2 0 0 0 .3 0 .7.7 0 0 0 .2-.6zM160.7 313a.2.2 0 0 0-.2-.2.3.3 0 0 0-.2 0 .7.7 0 0 0-.3.7.2.2 0 0 0 .1.1h.3a.7.7 0 0 0 .3-.6zM161.6 311.3a.3.3 0 0 0-.1-.2.3.3 0 0 0-.2 0 .8.8 0 0 0-.3.7.3.3 0 0 0 0 .2.2.2 0 0 0 .4 0 .8.8 0 0 0 .2-.7zM162.2 309.6a.2.2 0 0 0-.1-.2.3.3 0 0 0-.2 0 .7.7 0 0 0-.3.7.2.2 0 0 0 0 .2.2.2 0 0 0 .4 0 .7.7 0 0 0 .2-.7z" fill="#945CA2"/><path d="M124.2 315.1l4.3 2.7" stroke="#945CA2" stroke-width=".5" stroke-linecap="round" stroke-linejoin="round"/><path d="M294 42.8c2-1 4.6.2 5.8 2.7l33 71.1c1.2 2.5.5 5.3-1.5 6.4l-33.8 17c-2 1-4.5-.3-5.7-2.7l-33-71c-1.2-2.5-.5-5.4 1.5-6.4l33.8-17z" fill="#fff" stroke="#1060E1" stroke-width=".8" stroke-linejoin="round"/><path d="M291 44.3c2-1 4.4-.2 5.5 2.3l32.5 69.7c1.1 2.4.4 4.1-1.6 5.1L293 139" stroke="#1060E1" stroke-width=".8" stroke-linejoin="round"/><path d="M299.4 77.9a.3.3 0 0 1 .3 0l-.5.3v-.1a.3.3 0 0 1 .2-.2z" fill="#fff"/><path d="M274.2 72.6l.4.6-3.7 1.9-.3-.7 3.6-1.8z" fill="#126CFA"/><path d="M286.5 66.4l.4.7-10.5 5.2-.3-.7 10.4-5.2zM287.6 65.9l.3.6-.3.2-.4-.6.4-.2zM288.6 65.4l.3.7-.3.1-.4-.6.4-.2z" fill="#F48024"/><path d="M277 78.5l.3.6-3.7 1.9-.3-.7 3.7-1.8z" fill="#126CFA"/><path d="M291.2 71.3l.3.7-.4.2-.3-.7.4-.2zM292.2 70.8l.3.7-.3.2-.4-.7.4-.2z" fill="#FFB935"/><path d="M283.7 71.5l.3.7-6.2 3-.3-.6 6.2-3.1z" fill="#F48024"/><path d="M290 72l.3.6-11.1 5.6-.3-.7 11-5.6z" fill="#FFB935"/><path d="M278.3 81.4l.4.7-3.7 1.8-.3-.7 3.6-1.8z" fill="#126CFA"/><path d="M284.6 78.2l.4.7-.4.2-.3-.7.3-.2zM287.4 76.9l.3.6-.4.2-.3-.7.4-.1z" fill="#F48024"/><path d="M286 77.6l.3.7-.4.2-.3-.7.3-.2zM293.6 84.6l.3.7-.4.2-.3-.7.4-.2zM294.6 84.2l.3.6-.3.2-.4-.7.4-.1z" fill="#FFB935"/><path d="M301.6 80.6l.3.7-6.1 3-.4-.6 6.2-3z" fill="#F48024"/><path d="M303.4 83.3l.3.7-12.7 6.4-.4-.7 12.8-6.3z" fill="#FFB935"/><path d="M292.3 85.3l.3.7-8 4-.3-.7 8-4zM291.8 82l.3.6-8.8 4.4-.3-.7 8.8-4.4zM287.5 80.5l.3.6-5.9 3-.3-.7 5.9-3zM283.3 79l.3.6-3 1.5-.4-.6 3.1-1.6z" fill="#F48024"/><path d="M302.7 76.4l.4.7-10.5 5.2-.3-.6 7-3.5.5-.3 3-1.5z" fill="#FFB935"/><path d="M299.7 74.3l.3.7-11.1 5.6-.3-.7 11-5.6zM296.6 72.3l.3.6-8 4-.4-.6 8-4z" fill="#F48024"/><path d="M275.6 75.5l.3.7-3.7 1.8-.3-.6 3.7-1.9z" fill="#126CFA"/><path d="M284.7 71l.3.7-.4.1-.3-.6.4-.2zM285.7 70.5l.3.7-.4.1-.3-.6.4-.2zM292.6 67l.3.7-6.2 3.1-.3-.7 6.2-3z" fill="#F48024"/><path d="M279.7 84.3l.3.7-3.7 1.9-.3-.7 3.7-1.9z" fill="#126CFA"/><path d="M300.9 73.7l.3.7-.3.2-.4-.7.4-.2zM301.9 73.2l.3.7-.4.2-.3-.7.4-.2z" fill="#FFB935"/><path d="M281 87.3l.4.7-3.7 1.8-.3-.7 3.7-1.8z" fill="#126CFA"/><path d="M303.8 75.9l.3.7-.3.2-.3-.7.3-.2zM304.8 75.4l.3.7-.3.2-.4-.7.4-.2z" fill="#F48024"/><path d="M282.4 90.2l.4.7-3.7 1.8-.3-.6 3.6-1.9zM285.2 96.1l.3.7-3.7 1.8-.3-.6 3.7-1.9z" fill="#126CFA"/><path d="M296.6 90.4l.3.7-.3.2-.4-.7.4-.2zM299.3 89l.3.7-.3.2-.3-.7.3-.2zM304.9 93.5l.3.7-6.2 3-.3-.6 6.2-3.1z" fill="#F48024"/><path d="M308.2 88.2l.3.7-10.4 5.2-.3-.7 10.4-5.2zM297.9 89.7l.3.7-.4.2-.3-.7.4-.2zM287.8 91.2l.3.7-2 1-.4-.7 2-1z" fill="#FFB935"/><path d="M289.8 90.2l.3.6-1.2.6-.3-.6 1.2-.6zM295.3 91l.4.7-8.3 4.2-.3-.7 8.2-4.2z" fill="#F48024"/><path d="M283.8 93.2l.3.6-3.7 1.9-.3-.7 3.7-1.8zM293.4 113.8l.3.7-3.7 1.8-.3-.7 3.7-1.8z" fill="#126CFA"/><path d="M299.8 107l.3.6-5.9 3-.3-.7 5.9-3zM295.6 105.4l.3.7-3 1.5-.4-.7 3.1-1.5zM305.7 107.6l.3.7-10.4 5.2-.3-.7 10.4-5.2zM306.8 107l.3.7-.4.2-.3-.7.4-.1zM308.9 98.8l.3.6-8 4-.4-.6 8-4zM312 100.8l.3.7-11.1 5.6-.3-.7 11-5.6z" fill="#F48024"/><path d="M308.9 95.1l.3.7-12.8 6.4-.3-.7 12.8-6.4z" fill="#FFB935"/><path d="M296 98l.3.6-6.2 3.1-.3-.6L296 98zM297.2 93.7l.4.7-8.9 4.4-.3-.7 8.8-4.4zM314 107.1l.3.7-6.2 3-.4-.6 6.2-3.1zM307.7 106.6l.4.7-.4.1-.3-.7.3-.1z" fill="#F48024"/><path d="M296.1 119.7l.3.6-3.7 1.9-.3-.7 3.7-1.9z" fill="#126CFA"/><path d="M310.3 112.5l.3.7-.3.2-.3-.7.3-.2zM311.3 112l.3.7-.3.2-.3-.7.3-.2z" fill="#FFB935"/><path d="M304.6 111.8l.3.7-8 4-.3-.7 8-4z" fill="#F48024"/><path d="M309.1 113.1l.3.7-11 5.6-.4-.7 11.1-5.6z" fill="#FFB935"/><path d="M290.6 107.9l.4.7-3.7 1.8-.3-.7 3.6-1.8z" fill="#126CFA"/><path d="M297 104.7l.3.7-.4.2-.3-.7.3-.2zM299.7 103.4l.3.6-.4.2-.3-.7.4-.1z" fill="#F48024"/><path d="M298.3 104l.3.7-.4.2-.3-.6.4-.2z" fill="#FFB935"/><path d="M288 102l.2.7-3.7 1.8-.3-.7 3.7-1.8z" fill="#126CFA"/><path d="M297 97.5l.3.6-.4.2-.3-.7.4-.1zM298 97l.3.6-.4.2-.3-.7.4-.1z" fill="#F48024"/><path d="M292 110.8l.3.7-3.7 1.8-.3-.6 3.7-1.9z" fill="#126CFA"/><path d="M313.2 100.2l.3.7-.3.2-.3-.7.3-.2zM314.2 99.7l.3.7-.4.2-.3-.7.4-.2z" fill="#FFB935"/><path d="M286.5 99l.4.7-3.7 1.9-.3-.7 3.6-1.8z" fill="#126CFA"/><path d="M309.3 87.7l.3.6-.4.2-.3-.6.4-.2zM310.3 87.2l.3.6-.4.2-.3-.7.4-.1z" fill="#F48024"/><path d="M294.7 116.7l.4.7-3.7 1.8-.3-.7 3.6-1.8z" fill="#126CFA"/><path d="M305.9 111.1l.3.7-.3.2-.4-.7.4-.2zM306.9 110.6l.3.7-.4.2-.3-.7.4-.2z" fill="#FFB935"/><path d="M297.5 122.6l.3.7-3.7 1.8-.3-.7 3.7-1.8z" fill="#126CFA"/><path d="M308.9 116.9l.3.6-.4.2-.3-.6.4-.2zM311.6 115.5l.3.7-.3.2-.3-.7.3-.2z" fill="#F48024"/><path d="M310.2 116.2l.3.7-.3.2-.4-.7.4-.2z" fill="#FFB935"/><path d="M307.6 117.5l.3.7-8.2 4.1-.3-.6 8.2-4.2z" fill="#F48024"/><path d="M289.3 105l.3.6-3.7 1.9-.3-.7 3.7-1.9z" fill="#126CFA"/><path d="M293.2 103l.4.6-2.1 1-.3-.6 2-1z" fill="#FFB935"/><path d="M295.3 102l.3.6-1.2.6-.3-.7 1.2-.6z" fill="#F48024"/><path d="M80.8 195.9c0 3.2 4.2 2.5 4.2.3z" fill="#fff"/><path d="M80.8 195.9c0 3.2 4.2 2.5 4.2.3" stroke="#1060E1" stroke-width=".8" stroke-linejoin="bevel"/><path d="M89.5 200.5c0 3.2 4.2 2.5 4.2.4" stroke="#1060E1" stroke-width=".8" stroke-linecap="round" stroke-linejoin="bevel"/><path d="M177.5 300.4c-4.1-1.6-6.3 1-7.6 6-1.3 5.6-1 6.5-1.8 10.6-2 2.2-4 4.2-6.1 6.1-1.4 1.2 2.1 5.2 3.8 3.8 2.2-1.7 3.1-2.7 6.1-5.4a1.6 1.6 0 0 0 .4-1.3c.6-.3 1-.7 1.4-1.2 1.3-2.5 6.5-17.6 3.8-18.6z" fill="#fff" stroke="#945CA2" stroke-width=".8" stroke-miterlimit="10"/><path d="M156.3 324.7l2.4.2 2.5-.2 1.3-.6c.7-.4 2.8 2 2 2.6l-2 1.2a6 6 0 0 1-2.8.8c-1 0-1.6-2.5-1.6-2.5l-2.3-.9c-.1-.2-.2-.6.5-.6z" fill="#fff" stroke="#EE7B06" stroke-width=".8" stroke-linejoin="round"/><path d="M186.8 377.7c.3.6.4 1.7-.4 2l-3.5 1.3c-.8.3-1 .8-2.3 1.5-1.4.7-4.7 1.5-5-1.2" stroke="#021766" stroke-width=".8" stroke-miterlimit="10" stroke-linecap="round"/><path d="M175.4 380.8c0-.8 0-.9.2-1 .8-1.2 2.8-2 3.6-2a2.8 2.8 0 0 0 2.3-1.8c.5-1.3 5-.8 5.2-.2.2.7.3 1.5.2 2.2 0 .2-.1.4-.4.6-.9.7-3 1-3.8 1.4-.8.3-.9.8-2.3 1.5-1.4.8-3.3 1.5-4.5.2-.3-.2-.5-.5-.5-.9z" fill="#fff" stroke="#1060E1" stroke-width=".8" stroke-linejoin="round"/><path d="M178.7 372.8c.3.6.4 1.6-.4 2l-3.5 1.2c-.8.4-1 .9-2.3 1.6-1.4.7-4.7 1.5-5-1.2" stroke="#021766" stroke-width=".8" stroke-miterlimit="10" stroke-linecap="round"/><path d="M167.3 375.9c0-.8.1-.9.3-1 .7-1.3 2.8-2 3.5-2 .7-.2 1.9-.4 2.3-1.8.5-1.4 5-.8 5.2-.2.2.7.3 1.5.2 2.2 0 .2 0 .4-.4.6-.9.7-3 1-3.8 1.4-.8.3-.9.8-2.3 1.5s-3.3 1.5-4.5.2c-.3-.2-.5-.5-.5-.9z" fill="#fff" stroke="#1060E1" stroke-width=".8" stroke-linejoin="round"/><path d="M170.9 331.8c-.8 7.2 0 16.5.4 21 .6 5.8.9 11.7.9 17.7 0 1 1.6 2 3.7 1.8 1.8-.2 3.4-.9 3.5-2 0-4.2 0-9.4-.2-12.9-.2-3.4-1-8.5-.8-11.8.2-3.4 0-9.8 0-9.8l-7.5-4z" fill="#fff" stroke="#021766" stroke-width=".8" stroke-linejoin="round"/><path d="M175 333.7c-.4 2 0 4 1 5.7.4.6.6 1.3.7 2 .2 5.5.8 11 1.8 16.3.8 6 1.3 12 1.5 17.9 0 1 2.2 2.1 4.2 1.5 1.6-.4 3-1.3 3-2.5 0-4.1 0-6.7-.2-10.2-.1-3.5-.8-9.7-.5-14.6.3-8.3 2-7.2.3-14.6l-11.8-1.5z" fill="#fff" stroke="#021766" stroke-width=".8" stroke-linejoin="round"/><path d="M187 325.7c-.3-3 0-5.7.8-12.4.8-6 .6-7-3.4-9.8-1-.7-3-2-4.4-2.7-1.7-1-4.8-1.5-7 0-2.6 1.8-3.2 6-2 16 .6 4.4 0 7-.4 12-.2 1.3-.1 2.5.2 3.7.6 1.5 1.5 2.3 4.3 3.7 4.4 2.2 11.4 3 12.4-.3.6-2-.1-5.8-.5-10.2z" fill="#fff" stroke="#945CA2" stroke-width=".8" stroke-miterlimit="10"/><path d="M174.7 302c-.4 1-.7 3 2.1 3.5a4.3 4.3 0 0 0 4.6-1.4c.6-.7 1-2 .3-2.3l-3-1.7c-.5-.2-3.2.3-4 2z" fill="#211002" opacity=".3"/><path d="M174.5 301.7l7-4.2a7.7 7.7 0 0 0-.5 4.6c.3 1.3-1.1 2.6-3.1 2.8-2 .2-2.9-.6-2.9-1.9.1-1.6-.1-1.4-.5-1.3z" fill="#fff" stroke="#EE7B06" stroke-width=".8" stroke-linejoin="round"/><path d="M181.4 289c2.6 2.5 2 6 .1 8.7-1.2 1.8-.3 2.2-2.8 4.1-2.5 2-4.2 1.3-5 .6a6.4 6.4 0 0 1-1.8-4.4l-.2-3.2c-.5-3 0-4 2-5.4 2.5-2 5.3-2.9 7.7-.4z" fill="#fff" stroke="#EE7B06" stroke-width=".8" stroke-linejoin="round"/><path d="M180.7 289.3l1.9.8c1 .6 1.2 2 1.2 3.3 0 1.8-2.2 8.9 3.8 5.6 1.3-.7 2.3-2.9 2-3.6 0-.2-.4-.5-.5-.3l-1 1.6a1.7 1.7 0 0 1-2.5-.7c-.4-.9 0-2.5.2-3.4.2-1 .6-2 .7-3.1.2-1 0-2.1-.6-3-1.5-2.2-5.3-2-7.4-1-1.8.8.3 2.5 1.1 3.2.4.3.7.5 1.1.6z" fill="#fff" stroke="#021766" stroke-width=".8" stroke-linejoin="round"/><path d="M181.2 298.3c.9-2.6.7-5.8-.2-5l-.7.9c-.9 1.2-.7 0-.4-1.6a1.3 1.3 0 0 0-.7-1.4 3.2 3.2 0 0 0-3.1.8 5 5 0 0 1-1.3 1c-1.7 1-3 .4-4.2-.6 1.7-2.3 1.2-3.5 3-5 .5-.4 1.2-.8 1.9-1a8.7 8.7 0 0 1 7.2 0 3.8 3.8 0 0 1 2 2.2v1.8c0 1.5-2.3 7-3.5 7.9z" fill="#fff" stroke="#021766" stroke-width=".8" stroke-linejoin="round"/><path d="M154 325l6.5 1.1c.5.2 1 .3 1.3.6l12.2 7.6c.4.2.4.4.1.3l-6.6-1-1.3-.6-12.1-7.6c-.4-.3-.5-.4-.2-.4z" fill="#fff" stroke="#1060E1" stroke-width=".8" stroke-miterlimit="10"/><path d="M167.9 330.3c1.2-.7 3-2.3 5-2.2 1.2-.1 2.4-.3 3.5-.6l1.4 2.2c-.9.1-1.7.4-2.5.7-1 .4-1 1.1-1.7 1.5a3.4 3.4 0 0 1-3.6 0c-1-.5-.4-1-.5-1l-.7.2c-1.4.7-1.8 1.3-2.4 1-.6-.5.2-1 1.5-1.8z" fill="#fff" stroke="#EE7B06" stroke-width=".8" stroke-linejoin="round"/><path d="M188.6 307.1c-1.4-2.4-4.2-2.1-5.4 1-.8 2.3-.1 4.5.1 7.5.3 3.4.6 5.5.4 7.5a71.9 71.9 0 0 1-8.5 3c-2.4.6-1 6.3 1.1 5.6 3-1 8.1-2.4 11-3.7l.3-.2.4-.2h.1a4 4 0 0 0 1.4-2.4c.5-2.2.7-3.7.8-8.6.1-3.5-.2-7-1.7-9.5z" fill="#fff" stroke="#945CA2" stroke-width=".8" stroke-miterlimit="10"/><path d="M319.2 324.3c-1.4.4-2.8.6-4.2.8-2.1 0-3.9 1.5-5.1 2.2-1.3.8-2.1 1.2-1.5 1.7.7.4 1-.3 2.4-1l.7-.2s-.5.5.6 1a3.4 3.4 0 0 0 3.5 0c.7-.3.7-1 1.7-1.4 1-.4 2-.6 3-.7l10 .8a12.8 12.8 0 0 0 10-6.4l4-7a2.2 2.2 0 0 0-3.8-2.1l-4 7a8.4 8.4 0 0 1-6.5 4.1l-10.8 1.2z" fill="#fff" stroke="#6E4E47" stroke-width=".8" stroke-miterlimit="10"/><path d="M338 323.3a2.7 2.7 0 0 0 2.4-1.4l4.3-7.4a2.7 2.7 0 1 0-4.7-2.7l-4.3 7.4a2.7 2.7 0 0 0 2.3 4z" fill="#fff" stroke="#00BC70" stroke-width=".8" stroke-linejoin="round"/><path d="M349.3 374.9l1.7 3.4a1.7 1.7 0 0 1-.2 1.8l-3.4 4.8-1.1 1.1c-.9 1.2-2.8 1.3-4.3 1.2l-1.8-.2a1.2 1.2 0 0 1-1-1.9l2.3-1.4 1.5-2.1-.6-3.2h.3l6.6-3.5z" fill="#fff" stroke="#48486A" stroke-width=".8" stroke-miterlimit="10"/><path d="M347.8 374.2c1.7.1 2.3 1.4 1.3 2.9a6 6 0 0 1-5 2.3c-1.6-.1-2.2-1.4-1.3-2.9a6 6 0 0 1 5-2.3z" fill="#fff" stroke="#48486A" stroke-width=".8" stroke-miterlimit="10"/><path d="M347 375.3a1 1 0 0 1 .8 1.7 3.6 3.6 0 0 1-2.9 1.3c-1 0-1.3-.8-.8-1.7a3.5 3.5 0 0 1 3-1.3z" fill="#fff"/><path d="M355 385v3.8a1.7 1.7 0 0 1-.9 1.5l-6.5 3.8a4.1 4.1 0 0 1-4.1 0l-1.7-1a1.2 1.2 0 0 1 0-2.1l4.6-2.6.8-3.1h.3l7.5-.3z" fill="#fff" stroke="#48486A" stroke-width=".8" stroke-miterlimit="10"/><path d="M354 383c1.4 1 1.4 2.4 0 3.3a6 6 0 0 1-5.5 0c-1.5-.9-1.5-2.3 0-3.2a6 6 0 0 1 5.4 0z" fill="#fff" stroke="#48486A" stroke-width=".8" stroke-miterlimit="10"/><path d="M352.8 383.8a1 1 0 0 1 0 1.8 3.6 3.6 0 0 1-3.2 0 1 1 0 0 1 0-1.8 3.5 3.5 0 0 1 3.2 0z" fill="#fff"/><path d="M349.1 385.5V379a2 2 0 0 1 4.2 0v6.4" fill="#fff"/><path d="M349.1 385.5V379a2 2 0 0 1 4.2 0v6.4" stroke="#6E4E47" stroke-width=".8" stroke-miterlimit="10"/><path d="M345.5 377.9a2 2 0 0 1-1.8-1.1l-2-3.8a2 2 0 1 1 3.6-2l2 3.8a2 2 0 0 1-.8 2.8 2 2 0 0 1-1 .3z" fill="#fff" stroke="#6E4E47" stroke-width=".8" stroke-miterlimit="10"/><path d="M339.7 329v12.5L351 348a3.2 3.2 0 0 0 4.7-2.7l.2-7-16.2-9.3z" fill="#48486A"/><path d="M351.2 382.9a3.3 3.3 0 0 1-3.3-3.3l-2.8-41.4c0-1.8 4.3-2.5 6-2.5a3.3 3.3 0 0 1 3.4 3.2v40.7a3.3 3.3 0 0 1-3.3 3.3z" fill="#fff" stroke="#48486A" stroke-width=".8" stroke-miterlimit="10"/><path d="M344.2 376.7a3.3 3.3 0 0 1-2.8-1.6l-8.1-13.6a6.2 6.2 0 0 1-.5-5.2l6.7-19.5a3.3 3.3 0 0 1 4.2-2c1.7.6 4.6 3.8 4 5.6l-8 16.3a3.5 3.5 0 0 0 .2 3.1l7.1 12a3.3 3.3 0 0 1-2.8 5v-.1z" fill="#fff" stroke="#48486A" stroke-width=".8" stroke-miterlimit="10"/><path d="M344.1 297.6l-1-1.7c-.5-.9-1.2-1.7-2-2.5-2-1.7-5.5.2-5.5 2.9 0 2.7-.4 5.2 1.3 7.6 1.2 1.6 2.3 3.3 3.3 5.1l1.5 2.4c.8 1.2 3.2 2.6 4.2.8l.2-1c.4-2.5.2-5-.4-7.4-.5-2-.7-4.4-1.6-6.2z" fill="#fff" stroke="#021766" stroke-width=".8" stroke-linejoin="round"/><path d="M345.5 309l6.8 3.7c1.6 1 2 2.7 2.6 4.4 2.2 7.1 1.5 24.6 1.5 24.6-4.2 2.5-15.4.6-18-3.5 0 0 2.1-9.2.2-14.9a4.2 4.2 0 0 1-.8-3.8l.8-3.4V313a4.6 4.6 0 0 1 6.9-4z" fill="#fff" stroke="#00BC70" stroke-width=".8" stroke-linejoin="round"/><path d="M340.2 294c-1.9 0-3.9 2.6-3.2 5.7 1 4.7 2.4 7.2 7.1 7.2v3.5a2.2 2.2 0 1 0 4.4 0v-15.5l-8.3-1zM356.6 342.1l2-9c0-1.5-.2-3.1-.7-4.6L353 314a2 2 0 0 0-2.7-1.3 2.1 2.1 0 0 0-1.1 2.7l4.4 13c.6 1.8.9 3.8.7 5.7l-.8 6.6c-.4 1.7-1.4 4.2-1.2 5.9.2 1.5.7 4 2.2 4 .3 0 1.4-2.4 1.5-2.7l.2-2.1.4-3.8z" fill="#fff" stroke="#6E4E47" stroke-width=".8" stroke-miterlimit="10"/><path d="M354.3 326.8a2.5 2.5 0 0 1-2.3-1.7l-3.3-9.6a2.5 2.5 0 0 1 4.7-1.5l3.2 9.6a2.5 2.5 0 0 1-2.3 3.2z" fill="#fff" stroke="#00BC70" stroke-width=".8" stroke-linejoin="round"/><path d="M353.3 305c-.6-1.5-1-3-1.2-4.7-.2-2.7 1-5.3-1.3-7.4-1.6-1.6-4-1.7-6.3-1.7-1.5 0-5.3-.7-6 1.2-.1.2-.1.5 0 .8 0 1.4.5 2.8 1.4 3.8.7.7 1.6 1 2.2 1.8.6.7.4 2 1 3 .8 1.2 1.7 2.2 2.7 3.1 2.3 1.9 2 3.2 2 6.1 0 2.6.2 5.5 2.2 7.2l.7.6.6 1.2a3.8 3.8 0 0 0 3.2 2c.6 0 1.2-.2 1.7-.6.3-.3.6-.8.7-1.3 1-3.3.6-6.8-1-9.9l-1.2-2.1-1.4-3z" fill="#fff" stroke="#021766" stroke-width=".8" stroke-linejoin="round"/><path d="M322.4 369.7c.5.5.8 1.2 1 1.9.2.9 0 1.8-.3 2.6-1 2.3-2.3 4.4-3.9 6.3-.6 1-1.7 1.9-2.6 1.3-1-.6-.5-1.8-.2-2.8.5-1.5.7-3.1.7-4.7 0-.5-.1-1-.3-1.4a4 4 0 0 0-1.3-1.2c-2.5-1.8-7.4-9.3-3.8-12.1 2.5-2 9.1 8 10.7 10.1z" fill="#fff"/><path d="M321.3 370.4c.5.6.8 1.2 1 2 .2.8 0 1.7-.3 2.5a29 29 0 0 1-3.8 6.4c-.7.8-1.8 1.8-2.7 1.2-.9-.6-.5-1.8-.2-2.8.5-1.5.7-3 .7-4.7 0-.5-.1-1-.3-1.4-.4-.5-.8-.9-1.3-1.2-2.4-1.7-7.4-9.2-3.8-12.1 2.5-2 9.2 8 10.7 10.1z" fill="#D9EEFC"/><path d="M322.4 369.7c.5.5.8 1.2 1 1.9.2.9 0 1.8-.3 2.6-1 2.3-2.3 4.4-3.9 6.3-.6 1-1.7 1.9-2.6 1.3-1-.6-.5-1.8-.2-2.8.5-1.5.7-3.1.7-4.7 0-.5-.1-1-.3-1.4a4 4 0 0 0-1.3-1.2c-2.5-1.8-7.4-9.3-3.8-12.1 2.5-2 9.1 8 10.7 10.1z" stroke="#1060E1" stroke-width=".8" stroke-linejoin="round"/><path d="M314.9 363.5c.9 2.8.6 6 0 8.9-.8 5.5-2.4 11-4.6 16.2-.3.8-.7 1.5-1.4 2-.7.4-1.6.6-2.4.6-3.4 0-7.4 0-9.4-2.9-.9-1.5-1.4-3.2-1.4-4.9-.7-6.5-4-15.7 2.4-19.8 2.5-1.6 5.8-4.5 8.4-5.5 4.3-1.6 6.7 2.4 8.4 5.4z" fill="#fff"/><path d="M313.4 364c.9 3 .6 6 0 9a74 74 0 0 1-4.6 16.2c-.3.8-.7 1.5-1.4 2s-1.6.7-2.4.6c-3.5.1-7.4 0-9.4-2.8-.9-1.5-1.4-3.2-1.4-5-.7-6.4-4.1-15.6 2.4-19.8 2.5-1.6 5.8-4.5 8.4-5.5 4.3-1.6 6.7 2.4 8.4 5.4z" fill="#D9EEFC"/><path d="M288.9 390L267 402.7l-8.6-5 21.9-12.6 8.6 5z" fill="#fff" stroke="#1060E1" stroke-width=".8" stroke-linejoin="round"/><path d="M267 390l-5.2-2.8a.8.8 0 0 0-.6-.1.8.8 0 0 0-.4.4c-1 1.6 0 3.8 1.4 5 1.3 1.2 3.2 1.9 4.8 2.9.8.5 1.7 1 2.5.7.5-.3 1-.8 1.1-1.4a1.5 1.5 0 0 0-.5-2.3l-4-3" fill="#fff"/><path d="M267 390l-5.2-2.8a.8.8 0 0 0-.6-.1.8.8 0 0 0-.4.4c-1 1.6 0 3.8 1.4 5 1.3 1.2 3.2 1.9 4.8 2.9.8.5 1.7 1 2.5.7.5-.3 1-.8 1.1-1.4a1.5 1.5 0 0 0-.5-2.3l-4-3" stroke="#021766" stroke-width=".8" stroke-linejoin="round"/><path d="M317.8 390.8l-21.9 12.7-19.5-11.3 21.8-12.7 19.6 11.3z" fill="#fff" stroke="#1060E1" stroke-width=".8" stroke-linejoin="round"/><path d="M281.2 375.1a4.6 4.6 0 0 1 3.5-2.2c1 0 2 .3 2.8.7 2.8 1.2 5.5 2.5 8.3 4 .5.1.9.5 1.2 1 .2.4.3 1 0 1.5-.6 2.5-3.1 3.9-5.5 4.8-.9.4-1.8.7-2.7.7-.9 0-1.7 0-2.5-.4-4.4-1.6-8-5.7-5-10.1z" fill="#fff" stroke="#945CA2" stroke-width=".8" stroke-linejoin="round"/><path d="M274.3 378.3c-1.2.8-2 2-2.6 3.2l-4.2 8c-.4.6-.7 1.4-.9 2.1a2.5 2.5 0 0 0 2.5 3.1c.5 0 1-.2 1.5-.4a14.8 14.8 0 0 0 5.9-7 .3.3 0 0 1 .4 0c2 2 7.3 3 8.2 3 2.7 0 9-.9 8.6-4-.6-4.9-15.7-10.1-19.4-8z" fill="#fff" stroke="#945CA2" stroke-width=".8" stroke-linejoin="round"/><path d="M314.9 363.5c.9 2.8.6 6 0 8.9-.8 5.5-2.4 11-4.6 16.2-.3.8-.7 1.5-1.4 2-.7.4-1.6.6-2.4.6-3.4 0-7.4 0-9.4-2.9-.9-1.5-1.4-3.2-1.4-4.9-.7-6.5-4-15.7 2.4-19.8 2.5-1.6 5.8-4.5 8.4-5.5 4.3-1.6 6.7 2.4 8.4 5.4z" stroke="#1060E1" stroke-width=".8" stroke-linejoin="round"/><path d="M309.6 384l1.6-1c-2.5 1.5-4.1 4.7-4.1 9.1 0 9 6.3 20 14.1 24.5 4 2.3 7.5 2.5 10.1 1l-1.6 1c-2.6 1.5-6.1 1.3-10-1a31.3 31.3 0 0 1-14.2-24.5c0-4.5 1.6-7.7 4.1-9.1z" fill="#fff" stroke="#1060E1" stroke-width=".8" stroke-miterlimit="10"/><path d="M310 381c3-1.6 7-1.3 11.3 1.2 8.7 5 15.8 17.3 15.8 27.3 0 5-1.8 8.4-4.7 10l-1.5 1c2.8-1.6 4.6-5.1 4.6-10.1 0-10-7-22.3-15.8-27.3-4.4-2.5-8.3-2.8-11.2-1l1.6-1z" fill="#fff" stroke="#1060E1" stroke-width=".8" stroke-miterlimit="10"/><path d="M335.5 410.4c0 10-7.2 14-15.9 9A34.8 34.8 0 0 1 304 392c0-10 7.1-14 15.8-9 8.7 5 15.8 17.3 15.8 27.3zm-15.9 7.2c7.9 4.5 14.2.9 14.3-8.1 0-9-6.4-20-14.2-24.5-7.8-4.5-14.2-1-14.2 8s6.3 20 14.1 24.6z" fill="#fff" stroke="#1060E1" stroke-width=".8" stroke-miterlimit="10"/><path d="M310.4 383.9l10 17M320.5 401.2l10 17M320.5 385.7v15.8M320.5 401.4v15.8M329.7 395.8l-9.7 5.7M319.7 401.2L310 407M333.9 408.4l-28.4-16" stroke="#1060E1" stroke-width=".8" stroke-miterlimit="10"/><path d="M319.3 398.4l-.3.2a1.3 1.3 0 0 1 1.4.1l.3-.2a1.4 1.4 0 0 0-1.4 0z" fill="#fff" stroke="#1060E1" stroke-width=".8" stroke-miterlimit="10"/><path d="M321.7 403.2l.2-.2a1.3 1.3 0 0 0 .6-1.2 4.2 4.2 0 0 0-1.9-3.3l-.3.2a4.2 4.2 0 0 1 2 3.3 1.3 1.3 0 0 1-.6 1.2z" fill="#fff" stroke="#1060E1" stroke-width=".8" stroke-miterlimit="10"/><path d="M320.3 398.7c-1-.6-1.9-.1-1.9 1a4.2 4.2 0 0 0 1.9 3.4c1 .6 1.9 0 1.9-1.1a4.2 4.2 0 0 0-1.9-3.3z" fill="#fff" stroke="#1060E1" stroke-width=".8" stroke-miterlimit="10"/><path d="M318.3 368.2v22.5l-22 12.7v-22.5l22-12.7z" fill="#fff" stroke="#1060E1" stroke-width=".8" stroke-linejoin="round"/><path d="M296.3 408.7l-20.4-11.8a6 6 0 0 0-5.6-.3l-6.8 4.1M296.3 424.2l-23.1-13.4M308.6 380.6l-6-3.5a2 2 0 0 0-2.9 1.7v35.8a2.6 2.6 0 0 0 1.3 2.2l7.7 4.5" stroke="#1060E1" stroke-width=".8" stroke-linejoin="round"/><path d="M305.7 377.8a.9.9 0 0 0-.6 0 1.2 1.2 0 0 0-1 1.2 1 1 0 0 0 .5.8l7.5 4a1 1 0 0 1-.4-.7 1.2 1.2 0 0 1 1-1.2h.5l-7.5-4z" fill="#fff" stroke="#1060E1" stroke-width=".8" stroke-miterlimit="10"/><path d="M312.7 381.9a.9.9 0 0 1 1 .9 1.2 1.2 0 0 1-1 1.2.9.9 0 0 1-1-1 1.2 1.2 0 0 1 1-1.1zM308.4 419.4a.9.9 0 0 0-.5-.1 1.2 1.2 0 0 0-1 1.2 1 1 0 0 0 .4.8l4.8 2.6a1 1 0 0 1-.4-.8 1.2 1.2 0 0 1 1-1.2h.5l-4.8-2.5z" fill="#fff" stroke="#1060E1" stroke-width=".8" stroke-miterlimit="10"/><path d="M312.7 421.9a.9.9 0 0 1 1 1 1.2 1.2 0 0 1-1 1.1.9.9 0 0 1-1-1 1.2 1.2 0 0 1 1-1.1z" fill="#fff" stroke="#1060E1" stroke-width=".8" stroke-miterlimit="10"/><path d="M327 370.1l-6-3.5a2 2 0 0 0-2.8 1.7v35.8a2.6 2.6 0 0 0 1.3 2.3l7.6 4.4" stroke="#1060E1" stroke-width=".8" stroke-linejoin="round"/><path d="M324.1 367.4a1 1 0 0 0-.5-.1 1.2 1.2 0 0 0-1 1.2 1 1 0 0 0 .4.8l7.6 4.1a1 1 0 0 1-.5-.8 1.2 1.2 0 0 1 1-1.2h.6l-7.6-4z" fill="#fff" stroke="#1060E1" stroke-width=".8" stroke-miterlimit="10"/><path d="M331.1 371.4a.9.9 0 0 1 1 1 1.2 1.2 0 0 1-1 1.1.9.9 0 0 1-1-1 1.2 1.2 0 0 1 1-1.1zM326.8 409a1 1 0 0 0-.5-.2 1.2 1.2 0 0 0-1 1.2 1 1 0 0 0 .5.9l4.8 2.6a1 1 0 0 1-.5-.9 1.2 1.2 0 0 1 1-1.2l.6.1-4.9-2.6z" fill="#fff" stroke="#1060E1" stroke-width=".8" stroke-miterlimit="10"/><path d="M331.1 411.4a.9.9 0 0 1 1 1 1.2 1.2 0 0 1-1 1.2.9.9 0 0 1-1-1 1.2 1.2 0 0 1 1-1.2zM285.7 396.4l1.6-1c-2.5 1.6-4.1 4.7-4.1 9.2 0 9 6.3 20 14.1 24.5 4 2.3 7.5 2.5 10.1 1l-1.6 1c-2.6 1.4-6.1 1.2-10-1a31.2 31.2 0 0 1-14.2-24.6c0-4.5 1.6-7.6 4.1-9z" fill="#fff" stroke="#1060E1" stroke-width=".8" stroke-miterlimit="10"/><path d="M286.2 393.5c2.9-1.6 6.8-1.4 11.2 1.1 8.7 5 15.8 17.3 15.8 27.3 0 5-1.8 8.5-4.6 10.1l-1.6 1c2.8-1.7 4.6-5.2 4.6-10.2 0-10-7-22.2-15.8-27.2-4.4-2.6-8.3-2.8-11.2-1.1l1.6-1z" fill="#fff" stroke="#1060E1" stroke-width=".8" stroke-miterlimit="10"/><path d="M311.6 422.8c0 10-7.2 14.1-15.9 9a34.7 34.7 0 0 1-15.7-27.2c0-10 7.1-14 15.8-9 8.7 5 15.8 17.2 15.8 27.2zm-15.9 7.2c7.9 4.5 14.3.9 14.3-8.1s-6.3-20-14.2-24.5c-7.8-4.5-14.2-.9-14.2 8.1s6.3 20 14.1 24.5" fill="#fff"/><path d="M295.7 430c7.9 4.5 14.3.9 14.3-8.1s-6.3-20-14.2-24.5c-7.8-4.5-14.2-.9-14.2 8.1s6.3 20 14.1 24.5m15.9-7.2c0 10-7.2 14.1-15.9 9a34.7 34.7 0 0 1-15.7-27.2c0-10 7.1-14 15.8-9 8.7 5 15.8 17.2 15.8 27.2zM286.5 396.3l10 17.1M296.6 413.6l10 17.1M296.6 398.1V414M296.6 413.8v15.9M305.8 408.2l-9.7 5.8M295.8 413.6l-9.7 5.8M310 420.8l-28.4-16" stroke="#1060E1" stroke-width=".8" stroke-miterlimit="10"/><path d="M295.4 410.9l-.3.1a1.3 1.3 0 0 1 1.3.1l.3-.1a1.3 1.3 0 0 0-1.3-.1zM297.8 415.6l.2-.1a1.3 1.3 0 0 0 .6-1.3 4.2 4.2 0 0 0-1.9-3.2l-.3.1a4.1 4.1 0 0 1 2 3.3 1.3 1.3 0 0 1-.6 1.2z" fill="#fff" stroke="#1060E1" stroke-width=".8" stroke-miterlimit="10"/><path d="M296.4 411.1c-1-.6-1.9 0-1.9 1.1a4.2 4.2 0 0 0 2 3.3c1 .6 1.8.1 1.8-1a4.2 4.2 0 0 0-1.9-3.4z" fill="#fff" stroke="#1060E1" stroke-width=".8" stroke-miterlimit="10"/><path d="M272.5 409.6h-.1a.5.5 0 0 1 .4 0h.1a.5.5 0 0 0-.4 0zM273.3 411.2a.5.5 0 0 0 .3-.5 1.4 1.4 0 0 0-.7-1 1.4 1.4 0 0 1 .6 1.1.5.5 0 0 1-.2.4z" fill="#1060E1"/><path d="M272.8 409.7c-.3-.2-.6 0-.6.3a1.4 1.4 0 0 0 .6 1.2c.4.2.7 0 .7-.4a1.4 1.4 0 0 0-.7-1.1z" fill="#1060E1"/><path d="M269.1 404.6l.6-.3a3.4 3.4 0 0 0-1.4 3.1 10.7 10.7 0 0 0 4.8 8.4 3.4 3.4 0 0 0 3.5.3l-.6.3a3.4 3.4 0 0 1-3.4-.3 10.7 10.7 0 0 1-4.9-8.4 3.4 3.4 0 0 1 1.4-3.1z" fill="#fff" stroke="#1060E1" stroke-width=".8" stroke-miterlimit="10"/><path d="M269.3 403.6a3.8 3.8 0 0 1 3.8.4 12 12 0 0 1 5.4 9.3 3.8 3.8 0 0 1-1.5 3.5l-.6.3a3.8 3.8 0 0 0 1.6-3.5 11.9 11.9 0 0 0-5.4-9.3 3.8 3.8 0 0 0-3.9-.4l.6-.3z" fill="#fff" stroke="#1060E1" stroke-width=".8" stroke-miterlimit="10"/><path d="M278 413.7c0 3.4-2.4 4.8-5.4 3a12 12 0 0 1-5.4-9.3c0-3.4 2.4-4.8 5.4-3a12 12 0 0 1 5.4 9.3zm-5.4 2.4c2.7 1.6 4.8.3 4.9-2.7a10.7 10.7 0 0 0-4.9-8.4c-2.7-1.6-4.9-.3-4.9 2.7a10.7 10.7 0 0 0 4.9 8.4z" fill="#fff" stroke="#1060E1" stroke-width=".8" stroke-miterlimit="10"/><path d="M269.4 404.6l3.5 5.9M272.9 410.5l3.4 5.9M272.9 405.2v5.4M272.9 410.6v5.4M276 408.7l-3.3 2M272.6 410.5l-3.3 2M277.5 413l-9.8-5.5" stroke="#1060E1" stroke-width=".8" stroke-miterlimit="10"/><path d="M296.2 394.3l-17-9.9a1.7 1.7 0 0 0-2.5 1.5v6.3" stroke="#1060E1" stroke-width=".8" stroke-linejoin="round"/><path d="M302.1 375.4c1 3 1.8 6.3 1.4 9.4 0 .5-.2 1-.5 1.5-.4.5-.8 1-1.4 1.3-3.5 2.2-7.3 4-11.2 5.5a2.3 2.3 0 0 1-2.6-.8c-.6-.8-1.4-1.6-1-2.4l.6-.5 4.4-2.8c1.4-.9 2.8-1.8 3.4-3.3.7-1.8 0-3.7-.5-5.6a32 32 0 0 1-1.1-6.7c-.3-3.5 2-6.2 5.3-3.5 2.2 1.9 2.5 5.3 3.2 8z" fill="#fff"/><path d="M284 393.3c-.5.6-.8 1.4-.8 2.3a4 4 0 0 1 1.8-.6c1.2-.3 2.3-1 3-2v-.3-.4c-.3-.7-1-2-1.9-1.7-.8.2-1.6 2.1-2 2.7z" fill="#fff" stroke="#EE7B06" stroke-width=".8" stroke-linejoin="round"/><path d="M300.8 376.1c.8 3 1.7 6.3 1.3 9.4 0 .5-.2 1-.5 1.5-.4.5-.8 1-1.4 1.3-3.5 2.2-7.3 4-11.2 5.5a2.2 2.2 0 0 1-2.6-.8c-.6-.8-1.4-1.6-1-2.3l.6-.6 4.5-2.8c1.3-.9 2.7-1.8 3.3-3.3.7-1.8 0-3.7-.5-5.6a32 32 0 0 1-1.1-6.7c-.2-3.5 2-6.2 5.3-3.5 2.2 1.9 2.5 5.3 3.3 8z" fill="#D9EEFC"/><path d="M302.1 375.4c1 3 1.8 6.3 1.4 9.4 0 .5-.2 1-.5 1.5-.4.5-.8 1-1.4 1.3-3.5 2.2-7.2 4-11.1 5.4a2.4 2.4 0 0 1-2.7-.8c-.6-.8-1.4-1.5-1-2.3l.6-.5 4.5-2.8c1.3-.9 2.7-1.8 3.3-3.3.7-1.8 0-3.7-.5-5.6a32 32 0 0 1-1.1-6.7c-.2-3.5 2-6.2 5.3-3.5 2.2 1.9 2.5 5.3 3.2 8zM272.9 396.4v8.4" stroke="#1060E1" stroke-width=".8" stroke-linejoin="round"/><path d="M307.6 360.2l.3 1.5c-2.2.7-4.5.6-6.7-.2-.7-.3.3-1.2.7-2.5.4-2 .7-4 .8-6l4.4 2 .5 5.2z" fill="#fff" stroke="#EE7B06" stroke-width=".8" stroke-linecap="round" stroke-linejoin="round"/><path d="M299 354.3c-.5 1.3-.4 4.5 3 4.7z" fill="#fff"/><path d="M299 354.3c-.5 1.3-.4 4.5 3 4.7" stroke="#EE7B06" stroke-width=".8" stroke-linecap="round" stroke-linejoin="round"/><path d="M310.4 358.2c.5-.5 1-1 1.2-1.7l.5-2c.3-.5.4-1.1.5-1.7 0-1.2-.3-2.3-.8-3.4-1-2-2.9-3-5-3.2-2.6-.4-6.2 0-7.4 2.7-.3.6.2.5.4 1 .4.8-.3 1.7-.5 2.5s-.8 1.5-.4 2.6a8 8 0 0 1 .7-2s1-.8 1.4 0c.3 1-.7 2.2-.6 2.7a7.8 7.8 0 0 0 4.7 4.5c2.6.8 4.2-.8 5.3-2z" fill="#fff" stroke="#021766" stroke-width=".8" stroke-linecap="round" stroke-linejoin="round"/><path d="M309 347a3.7 3.7 0 0 0 2.8 6.7" fill="#fff"/><path d="M309 347a3.7 3.7 0 0 0 2.8 6.7" stroke="#FBB925" stroke-width=".8" stroke-linecap="round" stroke-linejoin="round"/><path d="M311.7 353.5a3.7 3.7 0 1 0 0-7.4 3.7 3.7 0 0 0 0 7.4z" fill="#fff" stroke="#021766" stroke-width=".8" stroke-linecap="round" stroke-linejoin="round"/><path d="M299.7 350.6l-.6-.2a1.6 1.6 0 0 0-1.7 1.6 1.5 1.5 0 0 0 1.4 1.6M297.7 351.1l1.5 1" stroke="#021766" stroke-width=".8" stroke-linecap="round" stroke-linejoin="round"/></svg>